<?xml version="1.0" encoding="UTF-8"?><svg id="Ebene_2" xmlns="http://www.w3.org/2000/svg" viewBox="0 0 286.16 42.13"><defs><style>.cls-1{fill:#ffce00;}.cls-2{fill:#e30613;}.cls-3{fill:#1d1d1b;}</style></defs><g id="Ebene_1-2"><g><path d="M1.61,18.49l.53-3.3L.35,9.73h.96l1.21,3.7c.06,.19,.12,.36,.16,.5,.04,.14,.06,.25,.07,.32,.04-.06,.1-.17,.18-.32,.08-.15,.18-.32,.31-.51l2.36-3.7h1.01l-3.53,5.46-.52,3.3h-.96Z"/><path d="M9.26,18.61c-.77,0-1.34-.22-1.71-.67s-.5-1.05-.38-1.82l.29-1.87c.12-.77,.44-1.37,.96-1.82,.52-.44,1.16-.67,1.93-.67s1.34,.22,1.72,.67c.38,.44,.5,1.05,.38,1.82l-.3,1.87c-.12,.77-.44,1.37-.96,1.82s-1.16,.67-1.93,.67Zm.13-.84c.5,0,.9-.14,1.21-.43,.31-.28,.51-.69,.6-1.22l.29-1.87c.09-.53,.02-.93-.2-1.22-.22-.28-.58-.43-1.07-.43s-.89,.14-1.21,.43c-.32,.28-.52,.69-.61,1.22l-.29,1.87c-.09,.53-.02,.93,.2,1.22,.22,.28,.58,.43,1.07,.43Z"/><path d="M16.45,18.61c-.75,0-1.31-.22-1.67-.67-.36-.45-.49-1.06-.37-1.82l.66-4.22h.95l-.66,4.22c-.08,.52-.01,.93,.2,1.22s.56,.44,1.03,.44,.87-.15,1.18-.44,.52-.7,.61-1.22l.66-4.22h.95l-.66,4.22c-.08,.51-.25,.95-.52,1.33-.26,.37-.6,.66-1,.86-.4,.2-.86,.31-1.36,.31Z"/><path d="M21.47,18.49l1.04-6.6h.94l-.19,1.16h.01c.35-.86,1.01-1.28,1.97-1.28,.7,0,1.21,.22,1.55,.65,.34,.44,.45,1.02,.34,1.76l-.07,.4h-.97l.06-.32c.09-.54,.02-.95-.2-1.24-.22-.29-.57-.44-1.05-.44s-.88,.15-1.2,.44-.52,.71-.61,1.24l-.66,4.24h-.96Z"/><path d="M37.75,18.61c-.66,0-1.16-.22-1.48-.65-.32-.44-.42-1.03-.3-1.78l.31-1.96c.11-.75,.4-1.35,.86-1.79,.46-.44,1.03-.66,1.69-.66,.47,0,.85,.11,1.13,.34,.28,.23,.44,.54,.46,.94h.01l.22-1.44,.31-1.88h.95l-1.39,8.76h-.95l.18-1.16h-.01c-.14,.4-.39,.71-.75,.94-.36,.23-.77,.34-1.25,.34Zm.43-.83c.47,0,.87-.15,1.18-.44,.32-.29,.51-.7,.59-1.22l.29-1.87c.09-.52,.02-.93-.2-1.22s-.57-.44-1.04-.44-.87,.14-1.18,.43c-.31,.29-.51,.7-.59,1.22l-.29,1.87c-.09,.53-.02,.94,.2,1.22,.22,.29,.57,.43,1.05,.43Z"/><path d="M44.95,18.61c-.66,0-1.16-.22-1.48-.65-.32-.44-.42-1.03-.3-1.78l.31-1.96c.11-.75,.4-1.35,.86-1.79,.46-.44,1.03-.66,1.69-.66,.47,0,.85,.11,1.13,.34,.28,.23,.44,.54,.46,.94h.01l.18-1.16h.95l-1.04,6.6h-.95l.18-1.16h-.01c-.14,.4-.39,.71-.75,.94-.36,.23-.77,.34-1.25,.34Zm.43-.83c.47,0,.87-.15,1.18-.44,.32-.29,.51-.7,.59-1.22l.29-1.87c.08-.52,0-.93-.21-1.22-.22-.29-.57-.44-1.04-.44s-.88,.14-1.19,.43-.51,.7-.59,1.22l-.29,1.87c-.08,.53-.01,.94,.2,1.22s.56,.43,1.04,.43Z"/><path d="M53.21,18.49c-.55,0-.96-.15-1.21-.44-.26-.29-.34-.71-.25-1.24l.64-4.06h-1.87l.13-.86h1.87l.29-1.8h.96l-.29,1.8h2.65l-.13,.86h-2.66l-.64,4.06c-.09,.54,.13,.82,.65,.82h1.75l-.13,.86h-1.75Z"/><path d="M59.35,18.61c-.66,0-1.16-.22-1.48-.65-.32-.44-.42-1.03-.3-1.78l.31-1.96c.11-.75,.4-1.35,.86-1.79,.46-.44,1.03-.66,1.69-.66,.47,0,.85,.11,1.13,.34,.28,.23,.44,.54,.46,.94h.01l.18-1.16h.95l-1.04,6.6h-.95l.18-1.16h-.01c-.14,.4-.39,.71-.75,.94-.36,.23-.77,.34-1.25,.34Zm.43-.83c.47,0,.87-.15,1.18-.44,.32-.29,.51-.7,.59-1.22l.29-1.87c.08-.52,0-.93-.21-1.22-.22-.29-.57-.44-1.04-.44s-.88,.14-1.19,.43-.51,.7-.59,1.22l-.29,1.87c-.08,.53-.01,.94,.2,1.22s.56,.43,1.04,.43Z"/><path d="M71.49,18.49l.13-.86h2.36l.77-4.87h-2.05l.13-.86h3.01l-.91,5.74h2.23l-.13,.86h-5.54Zm4.01-7.81c-.25,0-.43-.06-.56-.19-.12-.13-.17-.3-.14-.53,.04-.23,.14-.42,.31-.55s.38-.2,.62-.2,.43,.07,.56,.2,.17,.32,.14,.55c-.04,.22-.14,.4-.31,.53s-.38,.19-.62,.19Z"/><path d="M80.97,18.61c-.66,0-1.16-.16-1.51-.48-.35-.32-.51-.74-.49-1.26h.95c.02,.26,.13,.48,.33,.64s.49,.25,.86,.25h.59c.42,0,.76-.1,1.01-.29,.25-.19,.4-.44,.45-.76,.1-.62-.22-.98-.94-1.1l-.97-.16c-.61-.09-1.05-.28-1.32-.58s-.36-.71-.28-1.25c.09-.58,.35-1.03,.78-1.36s1.01-.5,1.73-.5h.47c.62,0,1.1,.15,1.43,.46,.33,.3,.5,.7,.5,1.2h-.95c-.02-.24-.12-.43-.31-.58-.19-.15-.46-.22-.8-.22h-.47c-.42,0-.75,.09-.99,.26-.24,.18-.38,.42-.43,.74-.05,.29,0,.51,.14,.67,.14,.16,.4,.26,.76,.32l.96,.16c.64,.1,1.1,.31,1.37,.61,.27,.3,.37,.74,.29,1.3-.1,.59-.38,1.06-.82,1.41-.44,.35-1.03,.52-1.76,.52h-.59Z"/><path d="M95.37,18.61c-.66,0-1.16-.16-1.51-.48-.35-.32-.51-.74-.49-1.26h.95c.02,.26,.13,.48,.33,.64s.49,.25,.86,.25h.59c.42,0,.76-.1,1.01-.29,.25-.19,.4-.44,.45-.76,.1-.62-.22-.98-.94-1.1l-.97-.16c-.61-.09-1.05-.28-1.32-.58s-.36-.71-.28-1.25c.09-.58,.35-1.03,.78-1.36s1.01-.5,1.73-.5h.47c.62,0,1.1,.15,1.43,.46,.33,.3,.5,.7,.5,1.2h-.95c-.02-.24-.12-.43-.31-.58-.19-.15-.46-.22-.8-.22h-.47c-.42,0-.75,.09-.99,.26-.24,.18-.38,.42-.43,.74-.05,.29,0,.51,.14,.67,.14,.16,.4,.26,.76,.32l.96,.16c.64,.1,1.1,.31,1.37,.61,.27,.3,.37,.74,.29,1.3-.1,.59-.38,1.06-.82,1.41-.44,.35-1.03,.52-1.76,.52h-.59Z"/><path d="M102.55,18.61c-.66,0-1.16-.22-1.48-.65-.32-.44-.42-1.03-.3-1.78l.31-1.96c.11-.75,.4-1.35,.86-1.79,.46-.44,1.03-.66,1.69-.66,.47,0,.85,.11,1.13,.34,.28,.23,.44,.54,.46,.94h.01l.18-1.16h.95l-1.04,6.6h-.95l.18-1.16h-.01c-.14,.4-.39,.71-.75,.94-.36,.23-.77,.34-1.25,.34Zm.43-.83c.47,0,.87-.15,1.18-.44,.32-.29,.51-.7,.59-1.22l.29-1.87c.08-.52,0-.93-.21-1.22-.22-.29-.57-.44-1.04-.44s-.88,.14-1.19,.43-.51,.7-.59,1.22l-.29,1.87c-.08,.53-.01,.94,.2,1.22s.56,.43,1.04,.43Z"/><path d="M107.01,20.65l.14-.86h.96c.64,0,1.02-.32,1.13-.95l.89-5.42h-2.1l.14-.86h2.09l.17-1.01c.09-.56,.33-1,.72-1.33,.39-.32,.89-.49,1.5-.49h1.55l-.14,.86h-1.55c-.66,0-1.03,.32-1.13,.95l-.17,1.01h2.59l-.14,.86h-2.58l-.89,5.42c-.1,.56-.34,1-.73,1.33-.39,.32-.89,.49-1.49,.49h-.96Z"/><path d="M117.26,18.61c-.77,0-1.34-.23-1.71-.68s-.5-1.05-.38-1.81l.29-1.87c.12-.75,.44-1.35,.96-1.81s1.16-.68,1.93-.68,1.34,.23,1.71,.68,.5,1.05,.38,1.81l-.18,1.16h-4.04l-.11,.71c-.09,.54-.02,.95,.19,1.24,.22,.29,.58,.44,1.09,.44,.86,0,1.41-.33,1.67-.98h.95c-.17,.55-.5,.99-.99,1.31-.49,.32-1.08,.48-1.76,.48Zm-.92-3.94h3.11l.06-.42c.09-.54,.02-.95-.19-1.24-.22-.29-.58-.44-1.08-.44s-.92,.15-1.24,.44-.51,.71-.6,1.24l-.06,.42Z"/><path d="M.02,31.49l-.02-6.6H.83l-.06,4.74c0,.18,0,.37,0,.59,0,.22-.01,.4-.02,.53,.05-.14,.11-.31,.17-.53,.07-.22,.13-.42,.17-.59l1.56-4.74h.94l.04,4.74c0,.18,.01,.37,.01,.59s0,.4-.01,.53c.05-.14,.1-.31,.17-.53,.06-.22,.12-.42,.18-.59l1.46-4.74h.83l-2.16,6.6h-1.08v-4.6c-.01-.22-.01-.44-.01-.68v-.56c-.04,.14-.1,.32-.17,.56-.08,.24-.15,.47-.22,.68l-1.5,4.6H.02Z"/><path d="M6.7,31.49l.13-.86h2.36l.77-4.87h-2.05l.13-.86h3.01l-.91,5.74h2.23l-.13,.86H6.7Zm4.01-7.81c-.25,0-.43-.06-.56-.19-.12-.13-.17-.3-.14-.53,.04-.23,.14-.42,.31-.55s.38-.2,.62-.2,.43,.07,.56,.2,.17,.32,.14,.55c-.04,.22-.14,.4-.31,.53s-.38,.19-.62,.19Z"/><path d="M17.21,31.49c-.55,0-.96-.15-1.21-.44-.26-.29-.34-.71-.25-1.24l.64-4.06h-1.87l.13-.86h1.87l.29-1.8h.96l-.29,1.8h2.65l-.13,.86h-2.66l-.64,4.06c-.09,.54,.13,.82,.65,.82h1.75l-.13,.86h-1.75Z"/><path d="M21.25,31.49l1.39-8.76h.95l-.34,2.06-.2,1.27h.01c.14-.41,.39-.73,.74-.95,.35-.23,.77-.34,1.25-.34,.66,0,1.15,.21,1.48,.62s.44,.97,.32,1.67l-.71,4.43h-.95l.68-4.32c.08-.5,0-.9-.21-1.18-.22-.28-.56-.42-1.01-.42s-.87,.15-1.19,.44-.52,.71-.6,1.24l-.67,4.24h-.95Z"/><path d="M35.01,33.65l.14-.86h.96c.64,0,1.02-.32,1.13-.95l.89-5.42h-2.1l.14-.86h2.09l.17-1.01c.09-.56,.33-1,.72-1.33,.39-.32,.89-.49,1.5-.49h1.55l-.14,.86h-1.55c-.66,0-1.03,.32-1.13,.95l-.17,1.01h2.59l-.14,.86h-2.58l-.89,5.42c-.1,.56-.34,1-.73,1.33-.39,.32-.89,.49-1.49,.49h-.96Z"/><path d="M43.07,31.49l1.04-6.6h.94l-.19,1.16h.01c.35-.86,1.01-1.28,1.97-1.28,.7,0,1.21,.22,1.55,.65,.34,.44,.45,1.02,.34,1.76l-.07,.4h-.97l.06-.32c.09-.54,.02-.95-.2-1.24-.22-.29-.57-.44-1.05-.44s-.88,.15-1.2,.44-.52,.71-.61,1.24l-.66,4.24h-.96Z"/><path d="M52.46,31.61c-.77,0-1.34-.23-1.71-.68s-.5-1.05-.38-1.81l.29-1.87c.12-.75,.44-1.35,.96-1.81s1.16-.68,1.93-.68,1.34,.23,1.71,.68,.5,1.05,.38,1.81l-.18,1.16h-4.04l-.11,.71c-.09,.54-.02,.95,.19,1.24,.22,.29,.58,.44,1.09,.44,.86,0,1.41-.33,1.67-.98h.95c-.17,.55-.5,.99-.99,1.31-.49,.32-1.08,.48-1.76,.48Zm-.92-3.94h3.11l.06-.42c.09-.54,.02-.95-.19-1.24-.22-.29-.58-.44-1.08-.44s-.92,.15-1.24,.44-.51,.71-.6,1.24l-.06,.42Z"/><path d="M59.66,31.61c-.77,0-1.34-.23-1.71-.68s-.5-1.05-.38-1.81l.29-1.87c.12-.75,.44-1.35,.96-1.81s1.16-.68,1.93-.68,1.34,.23,1.71,.68,.5,1.05,.38,1.81l-.18,1.16h-4.04l-.11,.71c-.09,.54-.02,.95,.19,1.24,.22,.29,.58,.44,1.09,.44,.86,0,1.41-.33,1.67-.98h.95c-.17,.55-.5,.99-.99,1.31-.49,.32-1.08,.48-1.76,.48Zm-.92-3.94h3.11l.06-.42c.09-.54,.02-.95-.19-1.24-.22-.29-.58-.44-1.08-.44s-.92,.15-1.24,.44-.51,.71-.6,1.24l-.06,.42Z"/><path d="M67.67,31.49c-.57,0-.99-.16-1.28-.49-.28-.32-.38-.76-.29-1.31l.97-6.1h-2.02l.14-.86h2.96l-1.1,6.96c-.05,.3,0,.53,.13,.69,.13,.16,.34,.25,.62,.25h2.2l-.14,.86h-2.18Z"/><path d="M73.75,31.61c-.66,0-1.16-.22-1.48-.65-.32-.44-.42-1.03-.3-1.78l.31-1.96c.11-.75,.4-1.35,.86-1.79,.46-.44,1.03-.66,1.69-.66,.47,0,.85,.11,1.13,.34,.28,.23,.44,.54,.46,.94h.01l.18-1.16h.95l-1.04,6.6h-.95l.18-1.16h-.01c-.14,.4-.39,.71-.75,.94-.36,.23-.77,.34-1.25,.34Zm.43-.83c.47,0,.87-.15,1.18-.44,.32-.29,.51-.7,.59-1.22l.29-1.87c.08-.52,0-.93-.21-1.22-.22-.29-.57-.44-1.04-.44s-.88,.14-1.19,.43-.51,.7-.59,1.22l-.29,1.87c-.08,.53-.01,.94,.2,1.22s.56,.43,1.04,.43Z"/><path d="M78.85,31.49l1.04-6.6h.95l-.19,1.22c.14-.42,.38-.75,.73-.99,.35-.24,.78-.35,1.27-.35,.66,0,1.15,.21,1.48,.62s.44,.97,.32,1.67l-.71,4.43h-.95l.68-4.32c.08-.5,0-.9-.21-1.18-.22-.28-.56-.42-1.01-.42s-.87,.15-1.19,.44-.52,.71-.6,1.24l-.67,4.24h-.95Z"/><path d="M88.5,31.61c-.78,0-1.35-.22-1.73-.67-.38-.44-.51-1.05-.39-1.82l.29-1.87c.12-.77,.44-1.37,.97-1.82,.53-.44,1.18-.67,1.96-.67s1.33,.2,1.72,.61c.39,.41,.53,.96,.44,1.67h-.95c.06-.45-.04-.8-.28-1.05-.24-.25-.6-.38-1.07-.38-.5,0-.91,.14-1.23,.43-.32,.28-.53,.69-.61,1.21l-.3,1.87c-.08,.52,0,.92,.23,1.21,.23,.28,.6,.43,1.09,.43s.87-.13,1.18-.38c.32-.25,.52-.6,.62-1.05h.95c-.13,.7-.45,1.26-.97,1.67s-1.16,.61-1.92,.61Z"/><path d="M95.66,31.61c-.77,0-1.34-.23-1.71-.68s-.5-1.05-.38-1.81l.29-1.87c.12-.75,.44-1.35,.96-1.81s1.16-.68,1.93-.68,1.34,.23,1.71,.68,.5,1.05,.38,1.81l-.18,1.16h-4.04l-.11,.71c-.09,.54-.02,.95,.19,1.24,.22,.29,.58,.44,1.09,.44,.86,0,1.41-.33,1.67-.98h.95c-.17,.55-.5,.99-.99,1.31-.49,.32-1.08,.48-1.76,.48Zm-.92-3.94h3.11l.06-.42c.09-.54,.02-.95-.19-1.24-.22-.29-.58-.44-1.08-.44s-.92,.15-1.24,.44-.51,.71-.6,1.24l-.06,.42Z"/><path d="M100.66,31.49l1.04-6.6h.94l-.19,1.16h.01c.35-.86,1.01-1.28,1.97-1.28,.7,0,1.21,.22,1.55,.65,.34,.44,.45,1.02,.34,1.76l-.07,.4h-.97l.06-.32c.09-.54,.02-.95-.2-1.24-.22-.29-.57-.44-1.05-.44s-.88,.15-1.2,.44-.52,.71-.61,1.24l-.66,4.24h-.96Z"/><path d="M107.31,31.49l1.04-6.6h.84l-.13,.82h.07c.09-.29,.24-.52,.46-.68,.22-.17,.47-.25,.77-.25,.58,0,.9,.31,.96,.94h.06c.09-.29,.24-.52,.46-.68,.22-.17,.48-.25,.77-.25,.41,0,.7,.15,.88,.46,.18,.3,.23,.71,.15,1.21l-.79,5.05h-.89l.79-5.05c.05-.29,.02-.51-.08-.68-.1-.16-.27-.25-.5-.25s-.43,.08-.59,.25c-.16,.16-.26,.39-.31,.68l-.79,5.05h-.79l.79-5.05c.05-.29,.02-.51-.09-.68-.11-.16-.28-.25-.51-.25s-.42,.08-.58,.25c-.15,.16-.25,.39-.3,.68l-.8,5.05h-.89Z"/><path d="M116.95,31.61c-.66,0-1.16-.22-1.48-.65-.32-.44-.42-1.03-.3-1.78l.31-1.96c.11-.75,.4-1.35,.86-1.79,.46-.44,1.03-.66,1.69-.66,.47,0,.85,.11,1.13,.34,.28,.23,.44,.54,.46,.94h.01l.18-1.16h.95l-1.04,6.6h-.95l.18-1.16h-.01c-.14,.4-.39,.71-.75,.94-.36,.23-.77,.34-1.25,.34Zm.43-.83c.47,0,.87-.15,1.18-.44,.32-.29,.51-.7,.59-1.22l.29-1.87c.08-.52,0-.93-.21-1.22-.22-.29-.57-.44-1.04-.44s-.88,.14-1.19,.43-.51,.7-.59,1.22l-.29,1.87c-.08,.53-.01,.94,.2,1.22s.56,.43,1.04,.43Z"/><path d="M121.7,33.65l1.39-8.76h.95l-.19,1.16h.01c.15-.4,.41-.71,.76-.94,.36-.23,.78-.34,1.27-.34,.66,0,1.14,.22,1.46,.65,.32,.44,.42,1.03,.3,1.78l-.31,1.96c-.12,.75-.41,1.35-.86,1.79-.46,.44-1.02,.66-1.68,.66-.48,0-.86-.11-1.15-.34-.28-.23-.44-.54-.46-.94h-.02l-.19,1.34-.32,1.98h-.95Zm2.93-2.87c.48,0,.87-.14,1.18-.43s.51-.7,.59-1.22l.29-1.87c.09-.53,.02-.94-.2-1.22-.22-.29-.57-.43-1.04-.43s-.87,.15-1.18,.44-.52,.7-.61,1.22l-.29,1.87c-.09,.52-.02,.93,.21,1.22,.23,.29,.57,.44,1.04,.44Z"/></g><path d="M285.78,14.76c.52,.52,.52,1.35,0,1.87l-10.55,10.55c-.52,.52-1.35,.52-1.87,0l-5.28-5.28c-.52-.52-.52-1.35,0-1.87s1.35-.52,1.87,0l4.35,4.34,9.62-9.62c.52-.52,1.35-.52,1.87,0h0Z"/><polygon points="163.28 38.9 162.69 37.07 162.09 38.9 160.17 38.9 161.72 40.03 161.13 41.86 162.69 40.73 164.24 41.86 163.65 40.03 165.21 38.9 163.28 38.9"/><polygon points="176.1 26.41 175.51 24.58 174.91 26.41 172.99 26.41 174.54 27.54 173.95 29.37 175.51 28.24 177.06 29.37 176.47 27.54 178.03 26.41 176.1 26.41"/><polygon points="171.43 33.73 170.83 31.9 170.24 33.73 168.31 33.73 169.87 34.86 169.27 36.69 170.83 35.56 172.39 36.69 171.79 34.86 173.35 33.73 171.43 33.73"/><path class="cls-3" d="M157.25,26.64c0,.39-.32,.71-.71,.71s-.71-.32-.71-.71v-3.54c0-.39,.32-.71,.71-.71s.71,.32,.71,.71v3.54Zm-.71-17.36c3.13,0,5.67,2.54,5.67,5.67v2.83h.71c1.96,0,3.54,1.59,3.54,3.54v7.09c0,1.96-1.59,3.54-3.54,3.54h-12.76c-1.96,0-3.54-1.59-3.54-3.54v-7.09c0-1.96,1.59-3.54,3.54-3.54h.71v-2.83c0-3.13,2.54-5.67,5.67-5.67Zm0,1.42c-2.39,0-4.25,1.9-4.25,4.25v2.83h8.5v-2.83c0-2.35-1.9-4.25-4.25-4.25Zm-6.38,8.5c-1.17,0-2.13,.95-2.13,2.13v7.09c0,1.17,.95,2.13,2.13,2.13h12.76c1.17,0,2.13-.95,2.13-2.13v-7.09c0-1.17-.95-2.13-2.13-2.13h-12.76Z"/><path d="M156.42,0c-9.18,0-16.98,5.91-19.86,14.11h3.09c2.73-6.57,9.22-11.21,16.77-11.21,10.01,0,18.16,8.15,18.16,18.16v1.45h2.9v-1.45c0-11.62-9.45-21.06-21.06-21.06Z"/><path class="cls-2" d="M135.35,21.06c0,2.48,.45,4.85,1.25,7.07h3.09c-.92-2.17-1.43-4.56-1.43-7.07s.5-4.81,1.39-6.95h-3.09c-.77,2.18-1.2,4.51-1.2,6.95Z"/><path class="cls-1" d="M156.42,42.13h1.45v-2.91h-1.45c-7.51,0-13.97-4.58-16.73-11.09h-3.09c2.91,8.14,10.69,14,19.82,14Z"/><path d="M194.09,35.76c-2.62,0-4.69-.74-6.21-2.22-1.52-1.48-2.29-3.51-2.29-6.07V13.99c0-2.57,.76-4.59,2.29-6.07,1.52-1.48,3.59-2.23,6.21-2.23s4.62,.76,6.15,2.27c1.54,1.51,2.3,3.56,2.3,6.15h-3.17c0-1.76-.47-3.13-1.42-4.11-.95-.98-2.24-1.46-3.87-1.46s-2.99,.47-3.93,1.42c-.94,.95-1.4,2.29-1.4,4.03v13.47c0,1.74,.47,3.08,1.4,4.03,.94,.95,2.25,1.42,3.93,1.42s2.95-.49,3.89-1.46c.93-.98,1.4-2.35,1.4-4.11v-3.81h-6.21v-2.93h9.38v6.74c0,2.59-.77,4.64-2.3,6.15-1.54,1.51-3.59,2.26-6.15,2.26Z"/><path d="M205.79,35.36V6.1h7.26c1.87,0,3.49,.36,4.87,1.08,1.38,.72,2.44,1.74,3.19,3.07,.75,1.32,1.12,2.87,1.12,4.63v11.67c0,1.79-.37,3.35-1.12,4.67-.75,1.32-1.81,2.35-3.19,3.07-1.38,.72-3,1.08-4.87,1.08h-7.26Zm3.17-2.85h4.09c1.84,0,3.31-.53,4.39-1.6,1.08-1.07,1.62-2.53,1.62-4.37V14.88c0-1.82-.54-3.26-1.62-4.33s-2.55-1.6-4.39-1.6h-4.09v23.57Z"/><path d="M225.84,35.36V6.1h9.18c2.7,0,4.84,.77,6.43,2.31,1.59,1.54,2.39,3.6,2.39,6.19s-.8,4.62-2.39,6.17c-1.59,1.55-3.74,2.33-6.43,2.33h-6.01v12.27h-3.17Zm3.17-15.15h6.01c1.68,0,3.03-.51,4.03-1.52,1-1.02,1.5-2.38,1.5-4.09s-.49-3.11-1.48-4.11c-.99-1-2.34-1.5-4.05-1.5h-6.01v11.22Z"/><path d="M246.88,35.36V6.1h8.82c1.74,0,3.25,.35,4.55,1.04,1.3,.7,2.3,1.66,3.01,2.91,.71,1.24,1.06,2.71,1.06,4.39,0,2.03-.54,3.75-1.6,5.15-1.07,1.4-2.53,2.35-4.37,2.83l6.33,12.95h-3.77l-5.85-12.63h-5.01v12.63h-3.17Zm3.17-15.51h5.65c1.63,0,2.93-.49,3.91-1.48,.98-.99,1.46-2.31,1.46-3.97s-.49-2.94-1.48-3.93c-.99-.99-2.29-1.48-3.89-1.48h-5.65v10.86Z"/></g></svg>