<svg xmlns="http://www.w3.org/2000/svg" viewBox="0 0 2446 120"><defs><clipPath id="a"><path style="fill:none" d="M0 0h2446v120H0z"/></clipPath></defs><g style="clip-path:url(#a)"><path d="M2446 120V73.71c-97.41-22.2-211.15-32.17-322.06-28-143.41 5.37-277.88 33.31-421.52 37.5-150.51 4.36-300.74-16.88-444.77-35.26-141.2-18-281.9-24.88-426.83-13.08-73.69 6-142.38 17.84-212.9 29.34C429.09 95 177.34 134.29 0 67.53V120h2446Z" style="opacity:.25;isolation:isolate;fill:#fff"/><path d="M2446 120v-15.81c-26.5-21.11-56.34-41.05-97.21-56.24C2243.37 8.73 2109.67 9 1988.23 28.42c-63.49 10.15-122.48 26.07-182.78 39.8-83.4 19-172.7 46-266.67 49.67-73.91 2.85-144.52-9.42-200.98-31.56-64.76-25.39-127.03-62-211.23-73-82.43-10.79-165.82 6.69-242.83 24.28-77.01 17.59-153.2 39-238.32 43.05-121.75 5.85-230.9-22.88-344.27-38.84-61.56-8.66-120.26-6.17-177.52 7.5C77.9 60.21 25.79 76.25 0 98.56V120h2446Z" style="isolation:isolate;opacity:.5;fill:#fff"/><path d="M2446 120v-5.63C2140.39 61 1805.78 48.68 1476.1 77.43c-87.65 7.64-171.69 20.12-260.11 26.46-120.26 8.63-229.27-12.24-337.47-35.4C758.4 42.78 640.04 24.76 507.14 30 330.76 37 155.61 75.71 0 114.81V120h2446Z" style="fill:#fff"/></g></svg>