<?xml version="1.0" encoding="UTF-8"?><svg id="Ebene_2" xmlns="http://www.w3.org/2000/svg" xmlns:xlink="http://www.w3.org/1999/xlink" viewBox="0 0 2446 120"><defs><style>.cls-1{fill:none;}.cls-2{clip-path:url(#clippath);}.cls-3,.cls-4,.cls-5{fill:#f0f0f1;}.cls-4{opacity:.5;}.cls-4,.cls-5{isolation:isolate;}.cls-5{opacity:.25;}</style><clipPath id="clippath"><rect class="cls-1" width="2446" height="120"/></clipPath></defs><g id="Ebene_1-2"><g class="cls-2"><g><path class="cls-5" d="M2446,120v-46.29c-97.41-22.2-211.15-32.17-322.06-28-143.41,5.37-277.88,33.31-421.52,37.5-150.51,4.36-300.74-16.88-444.76-35.26-141.2-18-281.9-24.88-426.83-13.08-73.69,6-142.38,17.84-212.9,29.34C429.09,95,177.34,134.29,0,67.53v52.47H2446Z"/><path class="cls-4" d="M2446,120v-15.81c-26.5-21.11-56.34-41.05-97.21-56.24-105.42-39.22-239.12-38.95-360.56-19.53-63.49,10.15-122.48,26.07-182.78,39.8-83.4,19-172.7,46-266.67,49.67-73.91,2.85-144.52-9.42-200.98-31.56-64.76-25.39-127.03-62-211.23-73-82.43-10.79-165.82,6.69-242.83,24.28-77.01,17.59-153.2,39-238.32,43.05-121.75,5.85-230.9-22.88-344.27-38.84-61.56-8.66-120.26-6.17-177.52,7.5C77.91,60.21,25.78,76.25,0,98.56v21.44H2446Z"/><path class="cls-3" d="M2446,120v-5.63c-305.61-53.37-640.22-65.69-969.9-36.94-87.65,7.64-171.69,20.12-260.11,26.46-120.26,8.63-229.27-12.24-337.47-35.4-120.12-25.71-238.49-43.73-371.39-38.49C330.76,37,155.61,75.71,0,114.81v5.19H2446Z"/></g></g></g></svg>