<svg xmlns="http://www.w3.org/2000/svg" viewBox="0 0 62.91 65.82"><path d="M49.47 6.39c3.78 4.45 5.11 10.72 7.14 16.3 2.03 5.62 4.72 10.53 4.49 15.33-.23 4.8-3.43 9.48-6.94 14.35-3.47 4.84-7.29 9.91-12.36 12.09-5.11 2.22-11.47 1.52-17.12-.62-5.62-2.15-10.49-5.77-15.02-10.14C5.09 49.29.92 44.14.14 38.49c-.78-5.62 1.83-11.74 5.3-16.65 3.47-4.91 7.84-8.66 12.6-12.64C22.8 5.18 28.02.97 33.72.15c5.73-.82 11.97 1.79 15.76 6.24Z" style="fill:#ff0"/><path d="M62.91 20.12c-1.64.73-3.41 1.22-5.27 1.44 1.89-1.13 3.35-2.92 4.03-5.05-1.77 1.05-3.73 1.81-5.82 2.22-1.67-1.78-4.06-2.88-6.7-2.88-5.06 0-9.17 4.09-9.17 9.13 0 .72.08 1.42.24 2.08-7.62-.38-14.38-4.02-18.9-9.54-.79 1.35-1.24 2.92-1.24 4.59 0 3.17 1.62 5.97 4.08 7.6-1.5-.05-2.92-.46-4.15-1.14v.12c0 4.42 3.16 8.12 7.36 8.96-.77.21-1.58.32-2.41.32-.59 0-1.17-.06-1.73-.16 1.17 3.63 4.56 6.27 8.57 6.34-3.14 2.45-7.09 3.91-11.39 3.91-.74 0-1.47-.04-2.19-.13 4.06 2.59 8.88 4.1 14.06 4.1 16.87 0 26.09-13.92 26.09-25.99 0-.4 0-.79-.02-1.18 1.79-1.29 3.35-2.9 4.57-4.73" style="fill-rule:evenodd"/></svg>