<svg xmlns="http://www.w3.org/2000/svg" viewBox="0 0 52.02 45.33"><path d="M15.01 44.27c-4.51-1.66-7.08-5.23-10.16-8.15-3.09-2.94-2.39-6.18-3.16-9.3-.77-3.12-2.98-6.14-.65-10.32 2.3-4.15 4.88-8.55 9.25-11.5C14.69 2 20.89.48 26.7.09c5.79-.37 11.17.42 16.38 1.8 5.26 1.39 2.02 4.79 3.93 8.14 1.9 3.33 6.69 8.03 4.4 12.22-2.28 4.19-3.4 6.51-7.1 10.51-3.7 4.03-7.79 8.32-13.04 10.6-5.28 2.29-11.75 2.57-16.28.91Z" style="fill:#ff0"/><path d="M19.13 33.46h-5.12v-16.5h5.12v16.5Zm-2.56-18.75c-1.64 0-2.97-1.36-2.97-3s1.33-2.97 2.97-2.97c1.64 0 2.97 1.33 2.97 2.97 0 1.64-1.33 3-2.97 3Zm21.74 18.75H33.2v-8.03c0-1.91-.04-4.37-2.66-4.37s-3.07 2.08-3.07 4.23v8.17h-5.12v-16.5h4.91v2.25h.07c.68-1.3 2.35-2.66 4.85-2.66 5.19 0 6.14 3.41 6.14 7.85v9.06Z"/></svg>