<svg xmlns="http://www.w3.org/2000/svg" viewBox="0 0 45.69 42.95"><path d="M.15 24.87c.65-4.24 3.51-7.93 5.63-11.7 2.15-3.78 3.59-7.62 6.37-9.73C14.93 1.33 19.07.98 23.47.72c4.36-.27 9.02-.45 12.67 1.44 3.69 1.89 6.36 5.86 7.89 10.1 1.51 4.22 1.84 8.71 1.58 13.34-.26 4.67-1.11 9.47-3.88 12.55-2.75 3.07-7.41 4.43-11.81 4.74-4.4.31-8.59-.45-13.09-1.32-4.52-.85-9.38-1.88-12.57-4.76C1.04 33.9-.51 29.11.15 24.87Z" style="fill:#ff0"/><path d="M26.91 39.29h-8.73V20.74h-4.36v-7.15h4.36V9.3c0-5.83 2.46-9.3 9.46-9.3h5.83v7.15h-3.64c-2.73 0-2.91 1-2.91 2.87v3.57h6.59l-.77 7.15h-5.83v18.55" style="fill-rule:evenodd"/></svg>