<?xml version="1.0" encoding="UTF-8"?><svg id="Ebene_2" xmlns="http://www.w3.org/2000/svg" viewBox="0 0 321.44 320.41"><defs><style>.cls-1{fill:#eea886;}.cls-2,.cls-3{fill:#fff9b0;}.cls-4,.cls-5{fill:#fff;}.cls-6{fill:#d1917d;}.cls-7{fill:#decbc4;}.cls-8,.cls-9{fill:#a2e9fc;}.cls-10{fill:#353437;}.cls-11,.cls-12{fill:#81dcfc;}.cls-13{fill:rgba(130,130,130,.3);}.cls-14{fill:rgba(255,255,255,.3);}.cls-15{fill:#57f2c9;}.cls-15,.cls-12,.cls-16,.cls-17,.cls-9,.cls-18,.cls-3,.cls-5,.cls-19{fill-rule:evenodd;}.cls-16{fill:#0a9ce5;}.cls-17{fill:#139973;}.cls-18{fill:#21cda4;}.cls-19{fill:#f5e2d9;}</style></defs><g id="Ebene_1-2"><g id="Delivery"><g><path class="cls-16" d="M42.56,58.67s-.08-.02-.12-.04c-.08-.06-.1-.19-.04-.27,7.59-9.77,17.03-19.13,27.34-27.05,18.25-14.05,38.76-23.53,60.91-28.16,21.52-4.5,43.47-4.18,65.23,.91,12.4,2.92,24.68,7.43,35.48,13.08,.1,.06,.14,.18,.08,.25-.06,.1-.18,.14-.25,.08-10.78-5.62-23-10.14-35.38-13.04-21.7-5.1-43.59-5.41-65.05-.91-22.11,4.63-42.54,14.07-60.75,28.08-10.27,7.9-19.69,17.24-27.26,26.97-.06,.08-.12,.1-.18,.1Z"/><path class="cls-16" d="M26.78,112.03h-.04c-.1-.02-.18-.12-.16-.21,3.02-19.56,13.37-40.75,28.41-58.17,8.91-10.31,19.38-19.28,31.12-26.62,13.14-8.23,27.85-14.42,43.77-18.43,.1-.02,.21,.04,.23,.14s-.04,.21-.14,.23c-15.88,3.99-30.55,10.18-43.65,18.37-11.7,7.32-22.13,16.25-31.02,26.54-14.98,17.36-25.32,38.47-28.33,57.97-.02,.1-.1,.18-.19,.18Z"/></g><g><path class="cls-12" d="M260.55,82.53c-.04,.16,.16,.1,.12,.25-1.65,7.04-3.27,14.01-4.94,21.06,1.62-.99,5.2-3.58,6.46-4.51,.29-.21,.51-.54,.58-.9,.56-2.51,2.88-12.9,4.57-19.23,.04-.14,0-.25-.06-.33-2.2,1.15-4.51,2.53-6.73,3.66Z"/><path class="cls-16" d="M189.11,65.74c2.98-.88,5.94-1.77,8.91-2.65,23.04,5.25,45.94,10.39,69,15.65,.14,.04,.25,.1,.29,.18-2.26,1.17-4.53,2.49-6.79,3.66-23.9-5.58-47.54-11.27-71.42-16.83Z"/><path class="cls-9" d="M255.1,104.05l-70.87-16.46c-.35-.08-.56-.43-.47-.76l4.79-20.61c.08-.35,.43-.56,.76-.47l70.87,16.46c.35,.08,.56,.43,.47,.76l-4.79,20.59c-.08,.35-.41,.56-.76,.49Z"/><polygon class="cls-12" points="239.28 87.8 255.15 91.58 252.99 100.65 237.12 96.87 239.28 87.8"/><g><polygon class="cls-9" points="250.14 96.1 249.55 98.53 252.12 99.13 252.71 96.72 250.14 96.1"/><polygon class="cls-9" points="249.46 95.94 239.26 93.51 238.68 95.94 248.87 98.35 249.46 95.94"/></g><path class="cls-9" d="M252.86,95.57h-.02l-13.23-3.13c-.06-.02-.08-.06-.08-.12,.02-.06,.06-.08,.12-.08l13.23,3.13c.06,.02,.08,.06,.08,.12,0,.04-.04,.08-.1,.08Z"/><path class="cls-9" d="M253.21,94.34h-.02l-13.23-3.13c-.06-.02-.08-.06-.08-.12,.02-.06,.06-.08,.12-.08l13.23,3.13c.06,.02,.08,.06,.08,.12-.02,.04-.06,.08-.1,.08Z"/><path class="cls-9" d="M253.5,93.08h-.02l-13.23-3.13c-.06-.02-.08-.06-.08-.12,.02-.06,.06-.08,.12-.08l13.23,3.13c.06,.02,.08,.06,.08,.12-.02,.06-.06,.08-.1,.08Z"/><polygon class="cls-3" points="221.05 73.1 227.85 74.66 222.81 96.55 216 94.98 221.05 73.1"/><polygon class="cls-7" points="221.01 73.07 228.52 69.98 235.39 71.54 227.86 74.75 221.01 73.07"/><polygon class="cls-7" points="263.62 80.9 192.59 64.71 195.01 63.97 265.37 79.94 263.62 80.9"/><path class="cls-16" d="M263.62,80.88c.56-.31,1.17-.64,1.73-.95-1.48,6.79-2.98,13.54-4.46,20.34-.58,.43-1.17,.82-1.75,1.25,1.5-6.87,2.98-13.74,4.48-20.63Z"/></g><g><path class="cls-16" d="M293.69,214.68c1.75-1.81,5.23-5.57,5.23-5.57,0,0-.12-.08-.39,0-13.23,3.91-26.47,7.8-39.68,11.71-2.61,2.06-5.22,4.13-7.8,6.17l42.64-12.32Z"/><path class="cls-12" d="M310.68,249.05l-4.22,8.27-12.73-42.73,5.2-5.49c.12,.06,.27,.18,.33,.39l11.5,38.92c.06,.21,.04,.45-.08,.64Z"/><path class="cls-9" d="M306.16,257.69l-42.27,12.47c-.25,.08-.53-.08-.6-.33l-12.47-42.27c-.08-.25,.08-.53,.33-.6l42.27-12.47c.25-.08,.53,.08,.6,.33l12.47,42.27c.08,.25-.08,.53-.33,.6Z"/><path class="cls-12" d="M306.16,257.69l-8.41,2.49-33.86,10c-.25,.08-.53-.08-.6-.33l-10.9-36.9c18.66,.56,27.22,17.73,51.96,17.05,1.28,4.24,2.14,7.08,2.14,7.08,.08,.25-.08,.53-.33,.6Z"/><g><polygon class="cls-9" points="287.75 251.41 301.23 247.43 303.58 255.4 290.11 259.38 287.75 251.41"/><path class="cls-12" d="M290.03,259.5l-2.41-8.15,13.66-4.03,2.41,8.15-13.66,4.03Zm-2.18-8.02l2.3,7.78,13.29-3.93-2.3-7.78-13.29,3.93Z"/></g><g><polygon class="cls-12" points="290.45 255.81 298.96 253.29 299.49 255.1 290.98 257.62 290.45 255.81"/><polygon class="cls-12" points="299.47 253.13 301.29 252.59 301.83 254.4 300 254.94 299.47 253.13"/></g><path class="cls-12" d="M290.26,254.71s-.08-.02-.1-.08c-.02-.06,.02-.1,.06-.12l10.63-3.13c.06-.02,.1,.02,.12,.06,.02,.04-.02,.1-.06,.12l-10.63,3.13s0,.02-.02,.02Z"/><path class="cls-12" d="M289.95,253.66s-.08-.02-.1-.08c-.02-.06,.02-.1,.06-.12l10.63-3.13c.06-.02,.1,.02,.12,.06,.02,.04-.02,.1-.06,.12l-10.63,3.13s-.02,.02-.02,.02Z"/><path class="cls-12" d="M289.64,252.59s-.08-.02-.1-.08,.02-.1,.06-.12l10.63-3.13c.06-.02,.1,.02,.12,.06,.02,.04-.02,.1-.06,.12l-10.63,3.13s-.02,.02-.02,.02Z"/><polygon class="cls-7" points="295.83 212.33 253.85 224.73 256.66 222.55 297.62 210.46 295.83 212.33"/><polygon class="cls-16" points="309.68 251.02 308.32 253.68 295.85 212.31 297.64 210.46 309.68 251.02"/><g><polygon class="cls-12" points="286.49 219.25 292.26 217.55 293.96 223.31 288.19 225.02 286.49 219.25"/><path class="cls-9" d="M291.57,220.58c-.27-.72-1.07-1.13-1.83-.9-.76,.21-1.21,.99-1.05,1.75,.16-.16,.35-.19,.53-.16,.18-.18,.37-.21,.56-.18,.18-.16,.37-.21,.62-.18,.18-.19,.39-.23,.62-.18,.14-.18,.33-.21,.54-.18Z"/><path class="cls-9" d="M290.38,223.27s-.06,0-.1-.02c-.12-.02-.21-.12-.25-.23-.02-.06,.02-.1,.06-.12,.06-.02,.1,.02,.12,.06,.02,.06,.06,.1,.1,.1,.06,.02,.16,0,.19-.06,.04-.04,.04-.1,.04-.14l-.72-2.41c-.02-.06,.02-.1,.06-.12,.06-.02,.1,.02,.12,.06l.72,2.41c.04,.12,0,.25-.08,.33-.04,.1-.14,.14-.25,.14Z"/></g><g><polygon class="cls-12" points="288.75 226.92 294.52 225.22 296.22 230.98 290.45 232.69 288.75 226.92"/><g><polygon class="cls-9" points="292.04 230.6 293.64 230.13 293.73 230.43 292.13 230.9 292.04 230.6"/><polygon class="cls-9" points="292.19 230.19 292.48 230.12 291.86 228.01 291.96 227.99 291.47 227.29 291.47 228.13 291.57 228.11 292.19 230.19"/><polygon class="cls-9" points="293.01 229.96 293.3 229.86 292.7 227.78 292.77 227.74 292.31 227.06 292.29 227.9 292.38 227.86 293.01 229.96"/></g></g><g><polygon class="cls-12" points="290.99 234.51 296.75 232.81 298.46 238.57 292.69 240.28 290.99 234.51"/><g><path class="cls-9" d="M294.82,236.99h0c-.43,.14-.9-.12-1.01-.54l-.41-1.36,1.58-.47,.41,1.36c.12,.43-.14,.88-.56,1.01Z"/><path class="cls-9" d="M295.19,238.33s-.08-.02-.1-.08l-.72-2.41c-.02-.06,.02-.1,.06-.12,.06-.02,.1,.02,.12,.06l.72,2.41c.02,.06-.02,.1-.06,.12,0,.02-.02,.02-.02,.02Z"/><path class="cls-9" d="M294.7,238.46s-.08-.02-.1-.08c-.02-.06,.02-.1,.06-.12l.97-.29c.06-.02,.1,.02,.12,.06,.02,.06-.02,.1-.06,.12l-.97,.29s0,.02-.02,.02Z"/></g></g><polygon class="cls-3" points="268.61 221.81 275.5 219.78 288.26 263 281.38 265.04 268.61 221.81"/><polygon class="cls-7" points="268.62 221.81 274.93 216.03 281.47 214.1 275.51 219.82 268.62 221.81"/></g><g><circle class="cls-8" cx="103.92" cy="49.08" r="5.43"/><circle class="cls-8" cx="3.99" cy="298.09" r="3.99" transform="translate(-294.11 300.74) rotate(-89.74)"/><circle class="cls-8" cx="78.79" cy="79.11" r="1.87"/><circle class="cls-8" cx="224.72" cy="210.75" r="6.01"/><circle class="cls-8" cx="240.95" cy="203.59" r="1.17"/><circle class="cls-8" cx="244.3" cy="304.86" r="3.5"/><circle class="cls-8" cx="35.05" cy="318.27" r="2.14"/><circle class="cls-8" cx="28.26" cy="286.18" r="6.13"/></g><g><path class="cls-18" d="M320.49,151.26l-21.15,5.35v3.95c-.08,.35,.06,.74,.45,.91l20.55,8.43c.51,.21,1.07-.16,1.07-.72v-17.34c.02-.56-.41-.82-.91-.58Z"/><path class="cls-18" d="M320.37,147.45l-20.55,8.48c-.64,.25-.64,1.17,0,1.42l20.55,8.48c.51,.21,1.07-.16,1.07-.72v-16.97c-.02-.53-.56-.9-1.07-.7Z"/><path class="cls-7" d="M289.6,128.22h0l-.64-1.3-7.59,4.03,.6,1.38h0c.04,.06,.08,.1,.16,.14l6.91,2.92c.25,.1,.47-.04,.49-.31l.1-6.73s0-.08-.02-.12Z"/><path class="cls-3" d="M288.59,126.82l-7.1,3.78c-.21,.12-.19,.41,.02,.51l6.95,2.88c.18,.08,.39-.06,.39-.25l.16-6.67c.02-.19-.21-.33-.41-.23Z"/><path class="cls-7" d="M260.16,174.09s-.7-6.54-.62-6.95c-.58,.1-1.09,.18-1.67,.27-.04,0-.1,.02-.14,.04l-4.75,3.39c-.14,.1-.14,.31,.02,.41l5.29,3.09c.06,.04,.12,.04,.16,.02h0c.58-.08,1.71-.27,1.71-.27Z"/><path class="cls-3" d="M259.4,167.18l-4.75,3.39c-.14,.1-.14,.31,.02,.41l5.29,3.09c.18,.1,.37-.04,.37-.23l-.54-6.48c-.04-.18-.25-.27-.39-.18Z"/><path class="cls-7" d="M34.74,185.12h0l-.6-1.25-7.26,3.85,.58,1.32h0c.04,.06,.08,.1,.16,.12l6.69,2.82c.19,.08,.37-.08,.37-.27l.08-6.48s0-.08-.02-.12Z"/><path class="cls-3" d="M33.78,183.78l-6.79,3.62c-.19,.1-.19,.39,.02,.49l6.64,2.76c.18,.08,.37-.06,.37-.23l.16-6.36c0-.23-.21-.37-.39-.27Z"/><path class="cls-18" d="M28.29,28.34l-2.69,18.66,3.15,1.3c.25,.18,.62,.19,.88-.06l13.51-13.66c.33-.33,.21-.91-.21-1.09l-13.86-5.7c-.43-.19-.78,.06-.78,.54Z"/><path class="cls-18" d="M25.22,27.19l.02,19.21c0,.58,.72,.9,1.13,.47l13.54-13.62c.33-.33,.21-.9-.21-1.09l-13.56-5.58c-.43-.18-.91,.16-.91,.62Z"/><path class="cls-7" d="M180.8,26.64h0l-2.9,1.17,7.41,16.97,3.06-1.09v-.02c.12-.06,.23-.18,.31-.33l7.47-14.56c.23-.53-.12-.86-.51-.9l-14.56-1.3c-.12-.02-.21,0-.29,.06Z"/><path class="cls-3" d="M177.63,28.57l6.95,15.86c.21,.47,.86,.49,1.09,.04l7.34-14.44c.19-.39-.06-.84-.49-.88l-14.28-1.42c-.45-.06-.8,.41-.6,.84Z"/><path class="cls-7" d="M7.43,231.3h0l2.78,2.24,12.71-16.83-2.78-2.43h-.02c-.12-.08-.29-.14-.49-.12l-18.43,.64c-.64,.06-.99,.58-.76,1.17l6.77,15.08c.04,.12,.12,.19,.21,.25Z"/><path class="cls-3" d="M11.11,233.39l11.89-15.78c.35-.47,0-1.13-.58-1.11l-18.45,.78c-.49,.02-.8,.53-.6,.97l6.56,15c.21,.49,.88,.56,1.19,.14Z"/></g><g><ellipse class="cls-10" cx="157.99" cy="282.66" rx="20.69" ry="3.23"/><path class="cls-18" d="M164.53,88.29c.37,.66,.8,1.56,1.13,2.67,.27,.95,.39,1.81,.43,2.51-.9-1.15-1.79-2.3-2.67-3.44,.35-.58,.72-1.15,1.11-1.73Z"/><path class="cls-18" d="M165.99,95.45c.97,1.71,1.93,3.66,2.76,5.88,2.32,6.07,2.84,11.64,2.84,15.7-1.63,.06-3.27,.12-4.92,.18-.64-6.21-1.26-12.42-1.91-18.64,.43-1.03,.82-2.08,1.23-3.11Z"/><path class="cls-18" d="M164.69,88.21c.76,.72,1.6,1.6,2.41,2.67,1.15,1.5,1.95,2.94,2.51,4.14-.53,.66-1.03,1.32-1.56,1.98,.45,.88,.88,1.79,1.3,2.76,2.22,5.27,2.96,10.29,3.11,14.4-2.94,.02-5.88,.06-8.8,.08-.78-7.96-1.56-15.94-2.34-23.9,1.11-.7,2.24-1.42,3.35-2.14Z"/><g><path class="cls-18" d="M81.63,188.53c-.43-.31-1.07-.74-1.95-1.03-1.5-.47-3.09-.25-4.26,.53-2.45,1.56-4.65,8.68-5.62,15.33-4.73,12.1-4.88,18.12-1.32,21.04,2.59,1.87,4.3,.93,4.46,.86-.14-2.63-.33-5.68-.08-8.7,.95-11.95,5.1-21.52,8.78-28.02Z"/><path class="cls-17" d="M90.26,194.97c-.43-.9-1.13-2.02-2.2-3.11-2.08-2.12-5.1-3.11-6.67-3.5-.58-.1-1.05,.18-1.26,.35-1.26,.93-2.1,2.08-3.31,4.18-2.78,5.18-3.33,10.63-4.4,13.27-.86,2.14-2.41,5.62-3.23,10.55,0,0-1.11,6.75,1.81,8.54,.8,.43,1.87,.39,2.69-.74,.49-.68,.76-1.11,1.44-2.1,.19-.29,.74-1.11,1.56-2.26,.7-.97,3.99-6.83,9.52-13.25-2.34-1.56-2.7-2.59-2.8-4.94-.1-3.31,2.78-6.58,6.87-6.99Z"/><path class="cls-18" d="M89.52,193.65c-.39-.58-.86-1.19-1.46-1.79-2.08-2.12-5.1-3.11-6.67-3.5-.58-.1-1.05,.18-1.26,.35-1.26,.93-3.21,3.31-4.55,6.85,7.3,2.24,13.12-1.09,13.95-1.91Z"/><path class="cls-1" d="M90.9,195.09c-.35-.31-.68-.6-1.03-.91-1.89,1.15-5.14,3.11-6.81,4.13-.66,.39-1.01,1.15-.91,1.91,.12,1.98,.16,2.59,.39,4.55,0,0,1.69,2.57,2.53,3.42,.39-.56,1.58-2,1.58-2,0,0,.76-4.71,1.79-6.95,.8-1.67,1.67-3.06,2.47-4.14Z"/><path class="cls-18" d="M76.57,220.29s-1.28-.37-.78-1.97c.9-2.41,4.32-8.58,6.4-11.6,.23-.43,.53-.97,.33-1.97,1.36-.06,3.52,1.07,3.41,2.47-1.26,1.4-6.81,9.3-9.36,13.06Z"/><path class="cls-18" d="M68.97,220.52c.02,.29,.08,.97,.58,1.62,.21,.27,.56,.72,1.17,.82,.45,.06,.86-.12,1.13-.33,.37-.27,.88-.31,1.28-.08l1.38,.74c-.33,.51-1.13,1.73-1.56,1.98-.6,.35-1.19,.33-1.42,.33-.95-.04-1.67-.54-2.04-.91-.93-.97-1.15-2.61-.53-4.16Z"/><path class="cls-18" d="M77.22,195.83c.25,1.67,.7,3.78,1.56,6.09,.86,2.34,1.89,4.22,2.82,5.66-.49,.82-1.19,2-1.67,2.82-.51-.72-3.95-6.11-5.14-12.61,.29-.76,.64-1.87,.93-2.63,.49,.21,.99,.45,1.5,.66Z"/><path class="cls-18" d="M73.4,202.74c.97,2.98,3.76,8.39,4.94,10.45-.49,.9-1.01,1.85-1.48,2.74-.68-1.03-3.76-6.48-4.69-9.26,.21-.56,.43-1.15,.64-1.71,.19-.74,.39-1.48,.58-2.22Z"/><path class="cls-18" d="M82.33,203.14c.06,.47,.14,1.03,.23,1.71,.04,.35,.08,.64,0,1.01-.08,.39-.25,.68-.35,.84-4.71,7.43-6.29,11.33-6.36,11.52-.23,.76-.06,1.75,.74,2.04-.39,.56-.68,.97-1.07,1.54-.29-.16-2.26-1.23-1.69-3.62,.7-1.71,1.5-3.5,2.45-5.37,1.93-3.78,4.05-6.99,6.05-9.67Z"/><g><ellipse class="cls-4" cx="75.49" cy="216.6" rx=".58" ry=".49" transform="translate(-153.46 202.64) rotate(-67.29)"/><ellipse class="cls-4" cx="77.13" cy="213.39" rx=".58" ry=".49" transform="translate(-146.23 173.49) rotate(-60)"/><ellipse class="cls-4" cx="78.97" cy="210.1" rx=".58" ry=".49" transform="translate(-142.46 173.44) rotate(-60)"/><ellipse class="cls-4" cx="80.92" cy="206.9" rx=".58" ry=".49" transform="translate(-138.72 173.52) rotate(-60)"/></g></g><g><path class="cls-17" d="M142.25,266.93c-1.58,2.43-2.22,5.95-2.35,7.18-.14,1.25-.04,2.57,.31,4.71,4.75,.04,12.42,.99,19.58,1.46,7.84,.08,14.69,.12,17.44,.14,.06-.25,.62-1.69-.95-3.06-3.23-1.36-10.74-3.11-18.64-10.99-1.32,.56-3.17,1.21-5.43,1.42-3.46,.35-6.66-.37-8.58-1.03-.23-.1-.41-.16-.6-.21-.49-.16-.64,.19-.76,.39Z"/><path class="cls-18" d="M141.94,267.44c-1.36,2.39-1.93,5.51-2.04,6.66-.14,1.25-.04,2.57,.31,4.71,1.42,.02,6.17,.37,8.02,.51-.27-8.74-6.19-12.05-6.29-11.87Z"/><path class="cls-18" d="M147.68,277.73c.6-.95,1.32-1.97,2.16-2.98,2.06-2.49,4.22-4.34,6.09-5.66,.74,.54,1.48,1.07,2.24,1.62-.84,.68-1.69,1.44-2.55,2.3-2.26,2.22-3.95,4.48-5.22,6.48-1.05-.08-2.12-.16-3.17-.23,.16-.51,.31-1.01,.45-1.52Z"/><path class="cls-18" d="M160.54,272.19c-.95,.91-1.93,1.93-2.92,3.04-1.4,1.58-2.61,3.13-3.66,4.59,1.3,.12,2.59,.21,3.89,.33,.74-1.09,1.62-2.26,2.65-3.46,.97-1.11,1.93-2.08,2.82-2.92-.43-.23-.86-.47-1.3-.72-.51-.27-1.01-.56-1.48-.86Z"/><path class="cls-18" d="M152.53,269.48c.35-.23,.7-.47,1.05-.68,.1-.08,.47-.37,1.01-.37s.93,.33,1.01,.41c.25,.19,.62,.45,1.07,.78,.37,.27,1.4,.99,1.98,1.4,1.3,.9,2.39,1.5,3.27,1.98,.64,.35,1.85,.99,3.39,1.71,1.09,.51,2.08,.91,2.94,1.23,.14,.04,.58,.12,1.09-.12,.54-.27,.76-.74,.8-.86,.7,.29,1.38,.58,2.08,.88-.21,.37-.72,1.13-1.67,1.63-1.44,.78-2.84,.47-3.19,.39-.82-.29-1.89-.7-3.11-1.25-.54-.25-2.45-1.11-5-2.59-1.79-1.07-4.11-2.55-6.71-4.55Z"/><path class="cls-1" d="M143.91,262.5l-1.05,3.99c.16,.02,.45,.12,.72,.23,1.44,.6,3.76,1.85,6.09,3.17,.74,.43,1.65,.39,2.37-.08,1.15-.76,2.59-1.65,3.83-2.37,0-1.23,.1-2.06,.54-3.35-1.6,.45-11.17-1.05-12.51-1.6Z"/><path class="cls-18" d="M153.62,268.8c.74-.49,1.3-.45,1.87-.06,.6,.45,.76,.58,1.36,1.01,3.89,2.84,7.78,4.79,11.35,6.17,.16,.04,.54,.16,.99,0,.68-.23,.95-.86,.99-.95-1.34-.6-2.76-1.32-4.22-2.2-3.07-1.83-5.95-4.18-7.9-5.99-1.52-1.87-4.69,.33-4.44,2.02Z"/><g><ellipse class="cls-4" cx="155.48" cy="270.22" rx=".56" ry=".49"/><ellipse class="cls-4" cx="158.68" cy="272.42" rx=".56" ry=".49"/><ellipse class="cls-4" cx="162.45" cy="274.52" rx=".56" ry=".49"/><ellipse class="cls-4" cx="166.58" cy="276.45" rx=".56" ry=".49"/></g><path class="cls-18" d="M176.27,277.34c-.58,.25-.72,.68-.39,1.5,.21,1.38-1.21,1.54-2.34,1.54-3.44-.02-8.37-.06-13.76-.12-7.16-.49-14.81-1.42-19.56-1.46-.16,.41-.29,.91-.37,1.52-.04,.27-.04,.53-.04,.78,0,1.07,.9,1.95,1.97,1.95h32.46c1.26,0,2.69-.64,3.17-2.1,.49-2.26-.54-3.37-1.15-3.6Z"/></g><path class="cls-18" d="M112.89,162.01c1.56-.35,3-.88,4.81-1.03,8.64-.72,15.84,1.75,20.39,3.89,5.78-7.49,13.15-18.92,18.45-34.17,3.93-11.35,5.57-21.56,6.21-29.5-7.75,10.47-15.06,17.71-20.2,22.32-9.52,8.54-16.5,12.49-22.9,22.52-3.95,6.21-5.7,12.24-6.75,15.98Z"/><path class="cls-10" d="M147.78,194.78c4.14,7.98,11.19,15.84,15.67,23.8,.47,.84,.39,1.89-.23,2.63-12.55,15.18-19.4,37.95-20,41.43,2.67,2.2,11.99,3.79,13.68,2.76,.74-2.51,1.65-5.33,3.58-8.5,7.75-12.69,23.04-30.03,23.55-36.23,.53-6.54-2.16-11.64-3.11-14.5-4.05-12.32-9.77-24.73-11.38-28.22,0-1.48-.16-3.7-1.03-6.21-6.07-14.75-32.87-.91-20.71,23.04Z"/><g><path class="cls-10" d="M133.03,157.24c-.91,1.67-2.3,4.36-3.62,7.76-1.13,2.9-3.72,10.1-5.18,28.72-.27,3.44-.53,7.78-.66,13.19-.02,.54-.62,.84-1.05,.54-1.54-1.07-3.35-2.47-8.11-4.3-8.48-3.25-18.9-4.65-23.43-8.29-5.57,4.26-5.84,11.48-5.7,12.73,1.95,.25,6.99,3.19,12.8,6.95,21.74,13.19,26.8,15.39,35.73,15.39,4.71-.78,8.87-4.79,10.35-8.29,4.3-8.06,13-40.61,21.48-50.23-2.34-2.26-5.33-4.73-9.07-6.99-9.17-5.49-18.14-6.85-23.55-7.2Z"/><path class="cls-14" d="M149.04,172.48c-1.91,0-3.56-.33-4.79-.7-.06-.02-.08-.08-.06-.12,.02-.04,.08-.08,.12-.06,2,.6,5.14,1.13,8.68,.19,1.79-.47,3.48-1.25,5.02-2.32,.04-.04,.1-.02,.14,.02,.04,.04,.02,.1-.02,.14-1.56,1.09-3.27,1.87-5.08,2.34-1.42,.35-2.76,.51-4.01,.51Z"/><path class="cls-14" d="M127.19,219.88c-.49,0-.97-.12-1.42-.35-3.87-1.97-7.84-3.85-11.79-5.66-8.83-4.01-17.98-7.67-27.17-10.86-.06-.02-.08-.08-.06-.12,.02-.06,.08-.08,.12-.06,9.19,3.19,18.33,6.85,27.19,10.88,3.95,1.79,7.92,3.7,11.81,5.66,.86,.43,1.83,.43,2.67,0,.86-.43,1.44-1.21,1.6-2.16,2.53-14.48,6.67-28.57,12.34-41.9,1.79-4.18,3.74-8.37,5.82-12.43,.02-.04,.08-.06,.14-.04,.04,.02,.06,.08,.04,.14-2.08,4.05-4.05,8.23-5.82,12.42-5.66,13.31-9.81,27.4-12.32,41.86-.18,.99-.8,1.83-1.71,2.3-.45,.21-.93,.33-1.42,.33Z"/><path class="cls-10" d="M133.81,229.98c4.71-.78,8.87-4.79,10.35-8.29,4.3-8.06,13-40.61,21.48-50.23-1.71-1.67-3.79-3.44-6.27-5.18-16.11,30.49-11.54,54.57-25.57,63.69Z"/><path class="cls-14" d="M131.74,159.73c-1.07,2.1-2.41,5.08-3.56,8.8-.56,1.81-1.01,3.6-1.56,6.34-.62,3.09-1.56,8.43-2.26,17.14-.29,3.46-.58,8.06-.72,13.52,1.85-7.26,3.58-15.12,5.04-23.55,1.36-7.82,2.35-15.28,3.06-22.26Z"/></g><g><path class="cls-19" d="M137.58,141.73c-.08,1.65-.31,3.56-.8,5.62-1.17,4.81-3.46,8.37-5.2,10.76,4.03-.02,7.34,.7,9.44,1.26,8.91,2.37,17.28,8.48,18.16,9.11,.64,.49,2.22,1.67,4.63,2.72,2.18,.93,4.14,1.34,5.45,1.56,.14-1.91,.33-4.88,.6-8.54,.6-8.1,1.05-13.31,1.21-15.31,1.23-15.41,2.35-29.48-2.63-44.82-1.13-3.48-2.32-6.21-3.02-7.76-9.28,15.14-18.56,30.28-27.85,45.4Z"/><path class="cls-7" d="M155.72,166.13c3.72,2.34,6.71,5.74,13.56,6.62,.12-1.56,.21-3.04,.37-4.57,.49-4.79,.72-9.36,.78-13.7,1.34-5.58,2.84-15.08,.78-26.5-1.56-8.7-4.63-15.45-7.12-19.91-.21,2.24-.43,4.48-.64,6.71,2.1,2,3.07,34.44-7.73,51.35Z"/><path class="cls-7" d="M137.37,144.49c-.14,.72-.37,1.77-.72,3.04-.53,1.95-1.36,4.46-2.96,7.36,3.23-1.62,8.66-4.18,15.12-10.98,4.98-5.04,10.59-16.35,11.91-19.42,4.18-9.81,4.92-18.92,4.79-25.24-9.38,15.08-18.76,30.16-28.14,45.24Z"/><path class="cls-7" d="M154.32,131.53c3.54,3.11,7.08,6.23,10.61,9.32-.1-8.95-.18-17.92-.27-26.87-3.42,5.86-6.89,11.71-10.33,17.55Z"/><path class="cls-7" d="M169.22,172.83h0c-2.35-.31-6.11-1.21-11.75-5.33-3.39-2.28-6.21-3.7-7.41-4.3-2.69-1.36-4.98-2.53-8.1-3.44-3.29-.97-6.77-1.48-10.33-1.46h0c-.06,0-.1-.04-.1-.1s.04-.1,.1-.1h.08c3.56,0,7.03,.49,10.29,1.48,3.11,.93,5.45,2.1,8.13,3.46,1.21,.6,4.03,2.04,7.43,4.32,5.6,4.09,9.32,4.98,11.66,5.29,.06,0,.1,.06,.08,.12,.02,.02-.02,.06-.08,.06Z"/><path class="cls-7" d="M157.63,164.32s-.04,0-.06-.02c-2.74-1.93-5.66-3.64-8.66-5.04-2.7-1.26-5.25-2.47-8.91-3.09-1.79-.31-3.6-.43-5.41-.39-.04,0-.1-.04-.1-.1s.04-.1,.1-.1c1.83-.06,3.66,.08,5.45,.39,3.68,.62,6.25,1.83,8.95,3.11,3,1.42,5.94,3.11,8.68,5.06,.04,.04,.06,.1,.02,.14,0,.02-.04,.04-.06,.04Z"/></g><g><path class="cls-16" d="M164.09,100.67c20.2,0,60.05,.39,60.05,.39,0,0,2.32-1.48,3.35-2.14-.14-.12-.25-.19-.53-.19-18.84-.04-37.83,.04-56.67,0-.21,0-.41,.04-.6,.1-1.91,.66-3.68,1.21-5.6,1.85Z"/><path class="cls-12" d="M224.28,100.84c1.17-.7,2.02-1.23,3.19-1.93,.16,.1,.27,.35,.31,.58v54.33c0,.56-.18,1.11-.51,1.58-.93,1.3-1.87,2.59-2.8,3.89-.06-19.48-.14-38.98-.19-58.46Z"/><path class="cls-9" d="M223.93,159.57h-59.08c-.41,0-.74-.33-.74-.74v-57.54c0-.41,.33-.74,.74-.74h59.08c.41,0,.74,.33,.74,.74v57.54c0,.41-.33,.74-.74,.74Z"/><path class="cls-12" d="M223.93,159.57h-59.08c-.41,0-.74-.33-.74-.74v-57.54c0-.41,.33-.74,.74-.74h4.18c5.94,23.59,16.77,28.84,29.38,33.47,8.29,3.06,17.98,5.43,26.27,11.91v12.88c-.02,.43-.35,.76-.76,.76Z"/><path class="cls-2" d="M198.45,159.55v-25.51c-2.53-.93-5-1.89-7.38-3.02v28.53h7.38Z"/><path class="cls-3" d="M198.45,100.55h-7.38v30.49c2.37,1.13,4.85,2.08,7.38,3.02v-33.51Z"/><rect class="cls-8" x="202.87" y="146.17" width="17.22" height="10.18"/><g><rect class="cls-11" x="204.54" y="152.26" width="10.88" height="2.3"/><rect class="cls-11" x="216.06" y="152.26" width="2.34" height="2.3"/></g><path class="cls-12" d="M218.32,150.93h-13.58c-.06,0-.1-.04-.1-.1s.04-.1,.1-.1h13.58c.06,0,.1,.04,.1,.1s-.04,.1-.1,.1Z"/><path class="cls-12" d="M218.32,149.57h-13.58c-.06,0-.1-.04-.1-.1s.04-.1,.1-.1h13.58c.06,0,.1,.04,.1,.1s-.04,.1-.1,.1Z"/><path class="cls-12" d="M218.32,148.21h-13.58c-.06,0-.1-.04-.1-.1s.04-.1,.1-.1h13.58c.06,0,.1,.04,.1,.1s-.04,.1-.1,.1Z"/><g><rect class="cls-11" x="212.64" y="104.11" width="7.45" height="7.45"/><path class="cls-9" d="M218.22,107.5c-.08-.95-.88-1.71-1.85-1.71s-1.77,.76-1.85,1.71c.25-.12,.47-.1,.68,0,.27-.16,.51-.12,.72,0,.25-.12,.51-.14,.8,0,.27-.18,.54-.14,.8,0,.21-.14,.45-.14,.7,0Z"/><path class="cls-9" d="M216,110.26c-.21,0-.43-.14-.43-.41,0-.06,.04-.1,.1-.1s.1,.04,.1,.1c0,.18,.16,.21,.23,.21s.23-.04,.23-.21v-3.11c0-.06,.04-.1,.1-.1s.1,.04,.1,.1v3.11c.02,.27-.19,.41-.43,.41Z"/></g><g><rect class="cls-11" x="212.64" y="114.02" width="7.45" height="7.45"/><g><rect class="cls-8" x="215.25" y="119.54" width="2.08" height=".49"/><polygon class="cls-9" points="215.58 119.14 215.97 119.14 215.97 116.43 216.08 116.43 215.75 115.44 215.46 116.43 215.58 116.43 215.58 119.14"/><polygon class="cls-9" points="216.65 119.14 217.02 119.14 217.02 116.43 217.15 116.43 216.82 115.44 216.51 116.43 216.65 116.43 216.65 119.14"/></g></g><g><rect class="cls-11" x="212.64" y="123.83" width="7.45" height="7.45"/><g><path class="cls-9" d="M216.34,128.13h0c-.56,0-1.01-.45-1.01-1.01v-1.75h2.02v1.75c0,.54-.47,1.01-1.01,1.01Z"/><path class="cls-9" d="M216.34,129.82c-.06,0-.1-.04-.1-.1v-3.11c0-.06,.04-.1,.1-.1s.1,.04,.1,.1v3.11c0,.06-.06,.1-.1,.1Z"/><path class="cls-9" d="M216.98,129.82h-1.26c-.06,0-.1-.04-.1-.1s.04-.1,.1-.1h1.26c.06,0,.1,.04,.1,.1s-.06,.1-.1,.1Z"/></g></g><polygon class="cls-7" points="191.08 100.55 194.11 98.74 201.04 98.74 198.45 100.55 191.08 100.55"/><polygon class="cls-7" points="225.91 99.85 166.56 99.85 168.13 99.35 226.79 99.35 225.91 99.85"/><polygon class="cls-16" points="226.82 156.03 225.97 157.26 225.93 99.85 226.79 99.35 226.82 156.03"/></g><g><path class="cls-18" d="M151.03,85.53c-.9,.62-2.06,1.5-3.37,2.59-.39,.33-3.95,3.35-6.99,7.24-2.61,3.35-3.97,6.21-8.54,17.09-3.74,8.89-3.81,9.28-4.53,10.88-2.65,5.82-7.71,13.66-18.37,21.62-.35,1.52-.6,3.41-.53,5.57,.21,5.64,2.67,9.52,4.09,11.58,.66-1.73,1.77-3.93,3.95-6.4,2.76-3.15,5.82-4.71,8.8-6.21,3.85-1.93,4.92-1.77,8.93-3.5,0,0,4.83-2.08,9.96-5.7,13-9.15,18.16-27.42,19.71-33.14,.99-3.62,1.79-7.96,2.32-13.17-.76-1.32-3.33-5.62-8.45-7.53-2.88-1.05-5.47-1.03-6.99-.9Z"/><path class="cls-15" d="M136.65,110.07c-1.17,2.67-1.91,4.94-2.39,6.6-1.44,4.94-2.53,8.87-1.42,13.47,.68,2.86,1.93,4.77,2.26,5.23,1.28,1.89,2.74,3.11,3.76,3.81,.97-.68,1.95-1.38,2.92-2.06-1.69-9.03-3.41-18.04-5.12-27.05Z"/><path class="cls-15" d="M155.89,108.49c-.25,2.49-.76,5.45-1.73,8.72-1.26,4.28-2.96,7.75-4.5,10.35-.95-.78-1.91-1.56-2.84-2.34,3.04-5.58,6.05-11.17,9.07-16.74Z"/><path class="cls-18" d="M112.75,162.08c.66-1.73,1.79-3.93,3.97-6.4,6.81-6.56,13.08-7.55,17.73-9.71,0,0,4.83-2.08,9.96-5.7,13-9.15,18.29-27.85,19.85-33.57-1.42,2.8-4.88,13.1-14.93,23.6-8.8,9.19-14.24,10.88-22.65,15.53-10.35,5.97-14.34,9.87-13.93,16.25Z"/></g><g><path class="cls-6" d="M169.36,83.37c-.31,.14-.76,.37-1.21,.78-.51,.47-.78,.91-.95,1.21-.74,1.26-2.65,5.14-4.14,6.81-3.33-2.72-6.67-5.47-10-8.19,.62-.58,1.26-1.26,1.91-2.06,1.83-2.34,2.78-4.71,3.27-6.48,3.72,2.67,7.41,5.31,11.13,7.94Z"/><path class="cls-13" d="M169.36,83.37c-.31,.14-.76,.37-1.21,.78-.51,.47-.78,.91-.95,1.21-.19,.33-.45,.82-.76,1.4-.95-.19-4.03-1.03-7.39-5.2-.97-.97-2.16-.04-3.95,.19,1.81-2.43,3.21-5.35,3.13-6.31,3.72,2.65,7.41,5.29,11.13,7.92Z"/><path class="cls-10" d="M169.85,64.94c-.23-1.07-.78-2.78-2.12-4.34-4.05-4.71-11.13-3.31-11.62-3.19-.91,.19-6.5,1.5-8.6,6.38-.29,.66-1.21,2.88-.62,5.68,.45,2.14,1.54,3.58,2.12,4.26,.14,1.67-1.21,2.88-1.98,3.02,.33,.08,1.32,.27,1.91-.02-.14,1.05-1.54,2.1-2.8,2.47,.82,.49,2.28,1.46,4.79,1.01-.37,.68-1.25,1.09-1.48,1.17,.33,.1,.8,.23,1.36,.33,.66,.1,2.14,.33,3.76-.19,.39-.14,.74-.29,1.07-.47,.29-.12,.6-.25,.91-.45,.82-.51,1.46-1.19,1.79-1.63-.12,0-.23-.02-.33-.06h0c.95-1.01,5.31-7.8,11.85-13.97Z"/><path class="cls-1" d="M170.29,65.19c.35,.35,2,2,2,5.06,0,.23,.23,.66,.23,.66l2.57,2.8s.54,.76-.12,1.26l-1.23,.86s-.25,.68,0,.97h0c.25,.29,.29,.7,.1,1.03l-.12,.19c-.06,.08-.04,.19,.04,.27l.06,.06c.21,.23,.27,.8,.04,1.09-.02,.18,0,.35,.1,.51l.51,.86c.31,.51,.18,1.19-.29,1.54-.49,.35-1.07,.72-1.75,1.05-.86,.41-3.74,1.71-7.14,.66-4.38-1.19-5.66-4.96-5.94-5.53-.14,.23-1.15,.66-1.93,.08-.64-.56-1.95-2.94-2.06-4.34-.16-.82,.88-2.35,2.47-1.34,3.07-.49,5.2-3.27,6.19-6.03,.54-2.08,4.07-2.96,6.27-1.71Z"/><path class="cls-6" d="M170.29,65.19c.23,.23,1.13,1.13,1.63,2.67-2.06,1.42-4.9,.37-9.79,2.43,.8-.95,1.44-2.14,1.87-3.37,.56-2.1,4.09-2.98,6.29-1.73Z"/><path class="cls-17" d="M164.28,67.02c.93,.04,4.79,.06,9.03-.76,2.47-.56,6.48-2.18,6.83-4.79-2.92,.06-5.86,.12-8.78,.18-.54,1.46-4.96,4.32-7.08,5.37Z"/><path class="cls-18" d="M150.83,72.72c1.26-.39,3.02-.97,5.06-1.79,2.22-.88,4.83-2.14,8.39-3.89,3.27-1.62,6.54-4.05,7.12-5.37-.74-.97-5.43-8.6-15.59-5.53-5.16,1.5-7.38,5.33-8.15,6.85-.19,.45-1.05,2.34-.97,4.32,1.98,1.42,3.89,4.26,4.14,5.41Z"/><path class="cls-18" d="M150.95,72.67c-.37,.19-.74,.41-1.09,.6-.29,.16-.58,.31-.86,.47-.74-.82-1.19-1.69-1.36-2.04,.39-.21,.72-.37,1.13-.58,.35-.19,.72-.39,1.07-.56,.37,.7,.74,1.42,1.11,2.12Z"/><path class="cls-15" d="M164.28,67.02c.93,.04,4.79,.06,9.03-.76,2.47-.56,6.48-2.18,6.83-4.79-.47,0-.93,.02-1.4,.02-1.36,4.05-11.62,4.3-12.4,4.36-.76,.49-1.5,.9-2.06,1.17Z"/><path class="cls-6" d="M170.25,84.21c-1.32,.31-3.07,.49-4.98-.12-4.38-1.19-5.66-4.96-5.94-5.53,.19-.14,.35-.27,.54-.68,.04-.1,.18-.1,.21,0,.99,2.22,3.79,6.23,10.16,6.32Z"/><path class="cls-10" d="M168.58,71.61s-.1-.02-.12-.04c-.08-.08-.1-.19-.02-.27,.04-.06,.1-.12,.16-.18,.41-.51,1.01-1.25,1.71-1.3,.27-.02,.54,.02,.82,.16,.1,.04,.14,.16,.1,.25-.04,.1-.16,.14-.25,.1-.21-.1-.41-.14-.6-.12-.53,.06-1.11,.76-1.44,1.17-.06,.08-.12,.14-.16,.19-.08,.02-.14,.04-.19,.04Z"/><ellipse class="cls-10" cx="170.23" cy="70.85" rx=".49" ry=".84" transform="translate(-7.97 23.5) rotate(-7.72)"/><path class="cls-10" d="M170.25,68.77c.14,.02,.29,.06,.43,.1,.12,.02,.25-.04,.27-.18h0c.06-.25-.78-.78-.78-.78-.29-.12-.62-.08-.88,.1-.25,.18-.58,.41-.8,.6-.78,.68-1.32,1.42-1.67,2.04-.04,.08,.06,.14,.12,.08,.97-.95,1.91-1.54,2.43-1.83,.27-.16,.58-.19,.88-.14Z"/><path class="cls-13" d="M173.25,75.95c-.31,0-.58-.1-.78-.29-.25-.25-.35-.62-.27-1.03,.02-.1,.12-.18,.23-.16,.1,.02,.18,.12,.16,.23-.06,.29,0,.53,.18,.68,.16,.16,.41,.21,.7,.18,.1-.02,.21,.06,.23,.16,.02,.1-.04,.21-.16,.23h-.29Z"/><path class="cls-13" d="M172.22,78.7c-.25,0-.53-.04-.82-.12-.25-.08-.49-.19-.72-.35-.1-.06-.12-.18-.06-.27,.06-.1,.18-.12,.27-.06,.19,.14,.39,.23,.6,.29,.8,.25,1.52,0,1.89-.18,.1-.04,.21,0,.25,.1,.04,.1,0,.21-.1,.25-.23,.14-.74,.33-1.32,.33Z"/><path class="cls-6" d="M173.87,79.48c-.14,.04-.33,.08-.51,.1-.43,.04-.82-.02-1.11-.1-.1-.02-.18,.1-.1,.16,.1,.12,.23,.23,.41,.33,.68,.45,1.4,.33,1.6,.29-.1-.12-.33-.45-.29-.78Z"/><path class="cls-6" d="M157.16,77.2s-.06-.02-.08-.06c-.02-.06-.7-1.26-.97-2.08-.27-.66,0-1.3,.39-1.6,.33-.25,.74-.23,1.09,.04,.04,.04,.04,.1,.02,.14-.04,.04-.1,.04-.14,.02-.27-.21-.58-.23-.86-.04-.33,.25-.56,.82-.33,1.38,.27,.82,.95,2.04,.97,2.04,.02,.04,0,.1-.04,.14-.02,.02-.04,.02-.06,.02Z"/><path class="cls-6" d="M158.05,75.84c-.18,0-.37-.06-.47-.19s-.18-.39,.06-.84c.21-.37,.16-.64,.06-.8-.02-.04-.02-.1,.04-.14,.04-.02,.1-.02,.14,.04,.1,.18,.23,.53-.04,.99-.16,.27-.18,.51-.08,.62,.1,.14,.33,.14,.45,.12,.06-.02,.1,.02,.12,.08,.02,.06-.02,.1-.08,.12h-.19Z"/></g><g><path class="cls-15" d="M151.75,83.54c.41-.51,1.05-.72,1.67-.6,1.32,.25,2.84,.68,4.46,1.48,5.35,2.67,7.76,7.65,8.58,9.55-.04,.37-.06,.66-.12,1.01-1.05-.25-1.97,3.25-5.64,6.19-.21,.18-.54,.02-.56-.25-.06-1.89-.41-5.14-.68-5.95-.54-1.63-1.56-5.35-5.47-7.78-1.38-.86-2.67-.97-3.54-1.23,.51-1.26,1.15-2.2,1.3-2.41Z"/><path class="cls-17" d="M151.75,83.54c.41-.51,1.05-.72,1.67-.6,1.32,.25,2.84,.68,4.46,1.48,5.35,2.67,7.76,7.65,8.58,9.55-.27-.31-.84-.14-1.32,.45-1.26,1.52-2.63,4.09-3.81,4.86-.21,.14-.51,0-.53-.27-.1-1.71-.45-3.07-.76-3.99-.54-1.63-2.12-5.41-6.03-7.84-1.38-.86-2.67-.97-3.54-1.23,.49-1.26,1.13-2.2,1.28-2.41Z"/></g><path class="cls-15" d="M130.52,162.22h-.02c-9.2-2.14-14.87-.99-17.42-.1-.21,.08-.23,.08-.29,.04-.02-.02-.04-.08-.02-.1,.93-2.34,2.26-4.46,3.89-6.29,2.45-2.74,5.08-4.18,7.39-5.45,2.3-1.26,3.81-1.83,5.57-2.47,.9-.33,1.83-.68,2.98-1.15,1.95-.8,6.91-3,11.11-5.94,6.67-4.69,10.31-10.55,12.26-13.7,3.25-5.22,4.81-9.79,6.32-14.23,1.23-3.54,2.2-7.16,2.84-10.47,.56-2.94,.97-5.84,1.19-8.39-.12-.31-3.29-8.78-12.4-10.86-.06-.02-.08-.06-.08-.12,.02-.06,.06-.08,.12-.08,9.28,2.12,12.55,10.96,12.55,11.03-.19,2.57-.62,5.49-1.19,8.43-.64,3.31-1.63,6.95-2.86,10.49-1.52,4.44-3.09,9.01-6.34,14.26-1.97,3.15-5.62,9.03-12.32,13.74-4.22,2.96-9.2,5.16-11.15,5.95-1.15,.49-2.08,.82-3,1.17-1.75,.64-3.27,1.21-5.55,2.45-2.3,1.26-4.92,2.69-7.36,5.41-1.58,1.77-2.86,3.79-3.78,6.05,2.57-.9,8.27-2.06,17.53,.1,.06,.02,.08,.06,.08,.12,0,.04-.04,.08-.08,.08Z"/><g><g><path class="cls-1" d="M136.53,132.52c.29,.43,.78,1.09,1.42,1.81,1.01,1.13,2.08,2,3.11,2.72,6.73,4.65,12.16,6.85,12.16,6.85,3.93,1.6,9.57,4.32,16.83,9.19,.25,.18,.49,.37,.68,.6,1.11,1.23,2.34,2.51,3.7,3.79,1.23,1.17,2.43,2.22,3.6,3.17,.74,.6,2.04,.99,3.68,.31,1.38,.9,2.8,1.19,4.34,.14,1.42,.58,2.67,.18,3.66-.74,.97,.27,3.06,.41,4.01-.82-1.6-.86-4.71-3.83-4.71-3.83,0,0-3.15-3.31-3.99-5.22-.19-.45,.1-.93,.58-.97,1.93-.14,3.85-.29,5.78-.43,.19-.02,.39-.08,.56-.18,.25-.16,.6-.43,.86-.88,.12-.18,.19-.35,.25-.53,.14-.43-.19-.86-.64-.82-.53,.04-1.09,.06-1.67,.04-2.34-.04-4.3-.58-5.78-1.15-.49-.18-.99-.27-1.52-.27-2.94,.04-5.86,.08-8.8,.12-.49,0-.97-.12-1.4-.37-.86-.51-1.73-1.03-2.59-1.58-8.76-5.49-15.82-11.87-21.48-18.25-1.3-.06-3.33,.04-5.57,.91-4.3,1.71-6.44,5.18-7.08,6.36Z"/><path class="cls-14" d="M170.7,143.52c-8.76-5.49-15.82-11.87-21.48-18.25-1.3-.06-1.25-.31-3.5,.56,13.97,11.73,18.64,14.85,24.99,17.69Z"/><path class="cls-6" d="M174.65,145.54c-.51,0-.99-.14-1.4-.37-.62-.37-1.25-.74-1.85-1.11-.04-.02-.06-.1-.04-.14,.02-.04,.1-.06,.14-.04,.6,.37,1.23,.74,1.85,1.11,.41,.23,.88,.35,1.34,.35l4.05-.06c.06,0,.1,.04,.1,.1s-.04,.1-.1,.1l-4.05,.06h-.04Z"/><path class="cls-6" d="M184.07,161.91c-.88,0-1.65-.37-2.35-.8-1.65,.64-3.02,.25-3.74-.35-1.23-1.01-2.43-2.08-3.6-3.17-1.28-1.21-2.53-2.49-3.72-3.81-.19-.23-.43-.43-.68-.58-5.86-3.93-11.52-7.03-16.81-9.19-.06-.02-5.51-2.28-12.18-6.87-.68-.47-1.05-.74-1.77-1.44-.04-.04-.04-.1,0-.14,.04-.04,.1-.04,.14,0,.72,.68,1.09,.95,1.75,1.42,6.66,4.59,12.08,6.83,12.14,6.85,5.31,2.16,10.98,5.25,16.85,9.2,.25,.18,.49,.37,.7,.62,1.19,1.3,2.43,2.59,3.7,3.79,1.15,1.09,2.35,2.16,3.58,3.17,.68,.56,1.98,.93,3.58,.31,.02-.02,.06,0,.08,0,1.15,.72,2.57,1.28,4.22,.14,.02-.02,.06-.02,.1,0,1.65,.76,3.06-.14,3.58-.72,.02-.02,.06-.04,.1-.02,.99,.35,2.86,.35,3.79-.68-1.62-.91-4.5-3.68-4.61-3.79-.14-.14-3.17-3.35-4.01-5.25-.1-.23-.1-.51,.04-.74,.14-.21,.35-.37,.62-.39l5.78-.43c.19-.02,.37-.08,.53-.18,.35-.21,.62-.51,.84-.84,.1-.16,.18-.33,.23-.51,.06-.18,.02-.35-.08-.49-.12-.14-.29-.21-.47-.21-.56,.04-1.13,.06-1.67,.04-1.97-.04-3.93-.43-5.82-1.15-.06-.02-.08-.08-.06-.12,.02-.06,.08-.08,.12-.06,1.87,.72,3.79,1.09,5.74,1.13,.54,.02,1.11,0,1.65-.04,.25-.02,.49,.08,.64,.27s.19,.45,.12,.66c-.06,.19-.16,.37-.25,.54-.21,.37-.53,.68-.9,.9-.18,.12-.39,.18-.6,.19l-5.78,.43c-.19,.02-.37,.12-.47,.29-.1,.18-.12,.37-.04,.54,.82,1.87,3.93,5.16,3.97,5.2,.02,.02,3.11,2.98,4.67,3.81l.06,.06s0,.06-.02,.08c-.95,1.17-2.94,1.21-4.03,.86-.58,.6-2.02,1.48-3.72,.74-.66,.51-1.32,.7-1.95,.7Z"/><path class="cls-6" d="M189.68,160.45s-.04,0-.06-.02c-.49-.33-.97-.68-1.42-1.05-.74-.6-1.44-1.28-2.08-2.02-.04-.04-.04-.1,0-.14,.04-.04,.1-.04,.14,0,.62,.72,1.32,1.4,2.06,2,.45,.37,.93,.72,1.42,1.05,.04,.04,.06,.1,.02,.14-.02,.02-.04,.04-.08,.04Z"/><path class="cls-6" d="M186.02,161.21s-.04,0-.06-.02l-.06-.06c-1.21-.99-2.18-1.89-2.9-2.67-.04-.04-.04-.1,0-.14s.1-.04,.14,0c.7,.76,1.67,1.65,2.88,2.65l.06,.06s.04,.1,.02,.14c-.02,.02-.06,.04-.08,.04Z"/><path class="cls-6" d="M181.74,161.13s-.04,0-.06-.02c-.06-.06-.23-.19-.43-.37-.47-.39-1.09-.91-1.25-1.11-.04-.04-.02-.1,.02-.14,.04-.04,.1-.02,.14,.02,.14,.18,.8,.72,1.23,1.09,.19,.18,.37,.31,.43,.37,.04,.04,.04,.1,0,.14-.02,0-.06,.02-.08,.02Z"/></g><path class="cls-17" d="M136.53,132.84c.8-1.15,1.97-2.57,3.7-3.89,3.56-2.72,7.3-3.33,9.13-3.5,.06-.54,.18-1.36,.39-2.34,.64-2.92,1.69-4.94,2.34-6.21,1.77-3.52,3.13-6.67,3.5-7.57,1.09-2.7,2.2-9.91,.78-13-.37-.82-1.32-2.63-3.31-3.5-3.41-1.5-7.01,1.07-7.96,1.75-6.99,6.67-9.98,21.23-10.29,22.9-1.19,6.52-.62,9.32-.19,10.88,.53,1.97,1.3,3.46,1.93,4.48Z"/><path class="cls-18" d="M150.02,126.12c-1.26,.33-2.8,.86-4.42,1.79-3.91,2.24-6.69,5.76-6.69,7.43-3.52-.16-3.21-3.48-3.21-3.62-.23-.27-.6-.78-.84-1.48-.23-.7-.23-1.32-.19-1.67,.93-.62,1.98-1.25,3.17-1.81,4.46-2.16,8.72-2.63,11.71-2.65,.18,.35,.14,.68-.04,1.11,.31,.21,.47,.53,.51,.9Z"/><path class="cls-15" d="M136.34,131.45s-.06,0-.08-.02c-.04-.04-.04-.1,0-.14,2.08-2.08,4.48-3.68,7.14-4.75,1.44-.58,2.94-.99,4.5-1.23,.06,0,.1,.02,.12,.08,0,.06-.02,.1-.08,.12-1.52,.23-3.02,.66-4.44,1.23-2.65,1.05-5.02,2.65-7.08,4.71-.04-.02-.06,0-.08,0Z"/><path class="cls-15" d="M134.84,126.59s-.06-.02-.08-.04c-.02-.04-.02-.1,.02-.14l.02-.02c1.81-1.17,6.83-3.83,14.15-3.31,.06,0,.1,.06,.1,.1,0,.06-.06,.1-.1,.1-7.26-.53-12.22,2.12-14.03,3.27l-.02,.02s-.04,.02-.06,.02Z"/></g><g><path class="cls-5" d="M78.15,218.17s-.04,0-.06-.02c-.43-.33-.9-.62-1.36-.9-.39-.21-.8-.43-1.21-.6-.06-.02-.08-.08-.06-.14,.02-.06,.08-.08,.14-.06,.41,.18,.82,.39,1.23,.6,.49,.27,.95,.58,1.38,.91,.04,.04,.06,.1,.02,.14-.02,.04-.04,.06-.08,.06Z"/><path class="cls-5" d="M80.14,215.27s-.04,0-.06-.02c-.43-.29-.88-.58-1.32-.86-.53-.31-1.07-.62-1.63-.9-.04-.02-.06-.08-.04-.14,.02-.04,.08-.06,.14-.04,.56,.29,1.11,.58,1.65,.91,.45,.27,.91,.56,1.34,.88,.04,.04,.06,.1,.02,.14-.04,0-.06,.02-.1,.02Z"/><path class="cls-5" d="M82.26,212.33s-.04,0-.06-.02c-.51-.41-1.05-.8-1.6-1.17-.53-.35-1.07-.68-1.63-.99-.04-.02-.06-.08-.04-.14,.02-.04,.08-.06,.14-.04,.56,.31,1.11,.64,1.65,.99,.54,.37,1.09,.76,1.6,1.17,.04,.04,.06,.1,.02,.14-.02,.06-.06,.06-.08,.06Z"/><path class="cls-5" d="M84.38,209.31s-.04,0-.06-.02c-.51-.43-1.05-.82-1.6-1.21-.58-.41-1.19-.8-1.81-1.17-.04-.02-.06-.08-.04-.14,.02-.04,.08-.06,.14-.04,.62,.37,1.23,.76,1.81,1.17,.54,.39,1.09,.8,1.6,1.21,.04,.04,.04,.1,.02,.14-.02,.06-.04,.06-.06,.06Z"/><g><path class="cls-5" d="M81.5,207.08s-.06-.02-.08-.04c-.02-.02-.04-.06-.02-.1,.47-1.5,.74-3,.78-4.46,0-.33,0-.68-.02-1.07-.06-2.06-.12-4.9,2.49-5.66,1.26-.41,2.51,.14,3.19,.7,.7,.6,1.46,1.79,1.15,4.05-.31,2.26-1.93,3.64-2.8,4.38-1.28,1.13-2.92,1.89-4.69,2.2h0Zm4.09-11.27c-.27,0-.56,.04-.86,.14-2.47,.7-2.41,3.35-2.35,5.47,0,.39,.02,.76,.02,1.09-.04,1.44-.29,2.9-.74,4.36,1.21-.23,2.9-.78,4.46-2.1,.86-.72,2.43-2.06,2.72-4.26,.29-2.18-.43-3.33-1.09-3.87-.51-.43-1.3-.82-2.16-.82Z"/><path class="cls-5" d="M81.5,207.15h-.04s-.06-.04-.06-.08c-.29-1.71-.91-3.21-1.79-4.44-.21-.31-.43-.56-.64-.82-.56-.68-1.05-1.26-1.19-2.24-.08-.54-.08-1.6,.62-2.57,.04-.06,1.01-1.36,2.67-1.42,1.89-.06,3.06,1.54,3.27,1.85,1.44,2.12,.33,4.9-.08,5.95-.56,1.42-1.5,2.72-2.7,3.76h-.06Zm-.33-11.38h-.1c-1.56,.06-2.47,1.28-2.51,1.34-.66,.91-.66,1.93-.58,2.43,.12,.91,.56,1.46,1.15,2.14,.21,.25,.43,.53,.66,.84,.88,1.21,1.48,2.69,1.79,4.36,1.13-.99,1.98-2.22,2.51-3.56,.41-1.01,1.48-3.74,.1-5.78-.21-.29-1.3-1.77-3.02-1.77Z"/><path class="cls-5" d="M85.23,207.78h-.31c-1.21-.04-2.41-.27-3.56-.7-.06-.02-.08-.08-.06-.12,.02-.06,.08-.08,.12-.06,1.13,.43,2.32,.64,3.5,.68,1.28,.04,5.7-.1,8.21-3.41,.7-.93,1.19-2.02,1.44-3.25,.02-.06,.06-.08,.12-.08,.06,.02,.08,.06,.08,.12-.27,1.25-.76,2.37-1.48,3.31-2.37,3.17-6.44,3.5-8.06,3.5Z"/><path class="cls-5" d="M81.4,207.15s-.04,0-.06-.02c-.04-.04-.04-.1,0-.14,.45-.51,1.87-2.32,1.54-4.57-.41-2.72-3.15-4.86-6.38-5-.06,0-.1-.04-.1-.1s.04-.1,.1-.1c3.33,.14,6.15,2.37,6.56,5.18,.35,2.34-1.13,4.22-1.58,4.73-.02,.02-.06,.02-.08,.02Z"/></g></g><g><path class="cls-5" d="M166.56,276.53s-.04,0-.06-.02c-.04-.02-.06-.08-.04-.14,.29-.51,.64-.95,1.05-1.38,.29-.31,.62-.6,.99-.86,.04-.04,.1-.02,.14,.02,.04,.04,.02,.1-.02,.14-.35,.25-.66,.53-.95,.84-.39,.41-.74,.86-1.01,1.34-.04,.04-.08,.06-.1,.06Z"/><path class="cls-5" d="M162.47,274.6s-.04,0-.06-.02c-.04-.04-.04-.1-.02-.14,.35-.45,.76-.86,1.17-1.25,.43-.39,.9-.74,1.36-1.05,.04-.02,.1-.02,.14,.04,.02,.04,.02,.1-.04,.14-.47,.31-.93,.64-1.34,1.03-.41,.37-.8,.78-1.15,1.23,0,0-.02,.02-.06,.02Z"/><path class="cls-5" d="M158.71,272.46s-.04,0-.06-.02c-.04-.04-.04-.1,0-.14,.39-.41,.8-.82,1.25-1.17,.58-.49,1.23-.93,1.89-1.3,.04-.02,.1-.02,.14,.04,.02,.04,.02,.1-.04,.14-.66,.37-1.28,.8-1.87,1.28-.43,.35-.84,.74-1.23,1.15-.02,0-.04,.02-.08,.02Z"/><path class="cls-5" d="M155.48,270.26s-.06-.02-.08-.04c-.04-.04-.04-.1,0-.14,.51-.49,1.05-.91,1.63-1.3,.64-.43,1.32-.8,2.02-1.11,.06-.02,.1,0,.14,.06,.02,.06,0,.1-.06,.14-.7,.31-1.36,.66-1.98,1.09-.56,.39-1.11,.82-1.6,1.28-.02,0-.06,.02-.08,.02Z"/><g><path class="cls-5" d="M155.54,270.03s-.06-.02-.08-.04c-.64-.8-1.07-1.67-1.3-2.63-.21-.86-.56-3.09,.8-5.18,1.03-1.58,3.07-3.06,5.27-2.8,.45,.06,2.69,.39,3.27,2.14,.35,1.03,.06,2.28-.72,3.04-.66,.66-1.44,.7-2.26,.74-.66,.04-1.36,.06-2.08,.41-1.28,.62-2.24,2.04-2.8,4.24,0,.04-.04,.06-.08,.08h-.02Zm4.16-10.47c-1.93,0-3.68,1.32-4.59,2.74-1.32,2-.97,4.18-.76,5.02,.21,.86,.6,1.67,1.15,2.39,.58-2.16,1.54-3.56,2.84-4.18,.76-.37,1.5-.39,2.16-.43,.82-.04,1.52-.06,2.14-.68,.7-.7,.99-1.89,.66-2.84-.54-1.63-2.69-1.97-3.11-2-.16-.02-.31-.02-.49-.02Z"/><path class="cls-5" d="M155.5,270.03h-.04s-.06-.04-.06-.08c-.08-.86-.19-3.79,1.93-5.86,2.08-2.04,5.66-2.65,7.2-1.21,.64,.62,.97,1.38,.95,2.16-.02,.76-.39,1.5-.99,2.04-.78,.68-2.24,.86-3.54,.97-1.75,.14-3.58,.8-5.39,1.97-.02-.02-.04,0-.06,0Zm6.66-7.76c-1.56,0-3.41,.7-4.69,1.95-1.95,1.89-1.97,4.55-1.89,5.55,1.81-1.13,3.6-1.77,5.35-1.91,1.28-.12,2.7-.29,3.44-.93,.56-.49,.91-1.19,.93-1.89,.02-.74-.29-1.44-.9-2.02-.54-.51-1.36-.74-2.26-.74Z"/><path class="cls-5" d="M155.54,270.03s-.04,0-.06-.02c-.04-.04-.06-.1-.02-.14,.72-1.05,2.32-2.92,4.98-3.58,3.21-.78,6.77,.54,9.07,3.41,.04,.04,.02,.1-.02,.14-.04,.04-.1,.02-.14-.02-2.26-2.8-5.74-4.11-8.87-3.33-2.61,.64-4.16,2.47-4.86,3.5,0,.02-.04,.04-.08,.04Z"/><path class="cls-5" d="M155.54,270.07s-.04,0-.04-.02c-1.26-.68-2.32-1.6-3.13-2.7-2.51-3.41-1.83-7.45-1.58-8.62,.02-.06,.06-.08,.12-.08,.06,.02,.08,.06,.08,.12-.27,1.15-.93,5.12,1.54,8.47,.8,1.09,1.83,1.97,3.07,2.65,.04,.02,.06,.08,.04,.14-.02,.04-.06,.06-.1,.06Z"/></g></g></g></g></g></svg>