<svg xmlns="http://www.w3.org/2000/svg" id="Layer_1" x="0" y="0" version="1.1" viewBox="0 0 908.58 189.28" xml:space="preserve"><style>.st0{fill:#fecc35}</style><path d="M245.25 72.05c-4.97 4.85-11.08 7.28-18.34 7.28s-13.38-2.43-18.34-7.28c-4.97-4.85-7.45-10.88-7.45-18.1 0-7.21 2.48-13.25 7.45-18.1 4.97-4.85 11.08-7.27 18.34-7.27s13.38 2.42 18.34 7.27c4.97 4.85 7.45 10.89 7.45 18.1 0 7.22-2.48 13.25-7.45 18.1zm-3.72-18.06c0-4.38-1.4-8.12-4.22-11.21-2.81-3.09-6.27-4.64-10.37-4.64s-7.56 1.54-10.37 4.64c-2.81 3.09-4.22 6.83-4.22 11.21 0 4.38 1.41 8.11 4.22 11.17 2.81 3.07 6.27 4.6 10.37 4.6s7.56-1.53 10.37-4.6c2.81-3.07 4.22-6.79 4.22-11.17zM293.95 28.58h11.34v50.8h-11.34l-24.2-31.83v31.83h-11.34v-50.8h10.61l24.93 32.7v-32.7zM314.15 79.38v-50.8h11.34v40.7h21.66v10.1h-33zM351.8 28.58h11.34v50.8H351.8v-50.8zM407.54 28.58h11.34v50.8h-11.34l-24.2-31.83v31.83H372v-50.8h10.61l24.93 32.7v-32.7zM464.36 28.58v10.1h-25.29v10.47h22.75v9.66h-22.75v10.54h26.09v10.03h-37.42v-50.8h36.62zM572.76 114.46c3.56 3.03 5.34 7.68 5.34 13.96 0 6.27-1.83 10.86-5.49 13.77s-9.24 4.36-16.75 4.36h-6.76v14.17h-11.34v-50.8h17.95c7.81 0 13.49 1.51 17.05 4.54zm-8.32 19.98c1.36-1.53 2.03-3.76 2.03-6.69 0-2.93-.88-5.02-2.65-6.25-1.77-1.23-4.52-1.85-8.25-1.85h-6.46v17.08h7.63c3.77 0 6.34-.76 7.7-2.29zM657.16 160.71l-4.72-10.97h-21.29l-4.72 10.97h-12.06l21.94-50.8h10.98l21.95 50.8h-12.08zm-15.33-35.68l-6.4 14.76h12.72l-6.32-14.76zM689.29 119.72v40.99h-11.34v-40.99h-14.39v-9.81h40.12v9.81h-14.39zM743.2 109.92v9.96h-23.54v10.97h22.38v9.96h-22.38v19.91h-11.34v-50.8h34.88zM790.45 153.44c-4.97 4.86-11.09 7.28-18.37 7.28-7.27 0-13.4-2.43-18.37-7.28-4.97-4.86-7.46-10.89-7.46-18.12s2.49-13.27 7.46-18.12c4.97-4.86 11.1-7.28 18.37-7.28 7.27 0 13.39 2.43 18.37 7.28 4.97 4.85 7.46 10.89 7.46 18.12s-2.49 13.26-7.46 18.12zm-3.73-18.08c0-4.39-1.41-8.13-4.22-11.22-2.82-3.1-6.28-4.64-10.38-4.64-4.11 0-7.56 1.54-10.38 4.64-2.81 3.09-4.22 6.83-4.22 11.22 0 4.38 1.41 8.11 4.22 11.19 2.81 3.07 6.27 4.61 10.38 4.61 4.11 0 7.57-1.53 10.38-4.61 2.81-3.08 4.22-6.81 4.22-11.19zM843.76 126.78c0 8.14-3.22 13.4-9.66 15.77l12.86 18.16h-13.95l-11.27-16.2h-7.85v16.2h-11.33v-50.8h19.26c7.9 0 13.53 1.33 16.9 4 3.36 2.67 5.04 6.95 5.04 12.87zm-13.66 6.03c1.41-1.26 2.11-3.26 2.11-5.99 0-2.74-.73-4.62-2.18-5.63-1.45-1.02-4-1.53-7.63-1.53h-8.5v15.04h8.29c3.86 0 6.51-.63 7.91-1.89zM897.25 128.74l-13.74 27.76h-6.76l-13.66-27.76v31.97h-11.34v-50.8h15.33l13.08 27.9 13.16-27.9h15.26v50.8h-11.34v-31.97zM65.5 28.59c-10.56 0-21.5 2.55-28.5 6.98V70.3c4-8.45 16.68-13.85 28.5-13.85 21.09 0 37.77 17.1 37.77 38.19 0 21.09-17.05 38.19-38.14 38.19S27 115.73 27 94.64V0H0v189.28h27v-40.95c10 7.75 23.69 12.36 38.02 12.36 36.48 0 66.29-29.57 66.29-66.05S101.98 28.59 65.5 28.59zM596.08 150.61v-40.69h-11.33v50.79h24.61l4.36-10.1zM236.1 114.46c3.56 3.03 5.34 7.68 5.34 13.95 0 6.28-1.83 10.86-5.49 13.77s-9.24 4.36-16.75 4.36h-6.76v14.17h-11.33v-50.79h17.95c7.8 0 13.48 1.51 17.04 4.54zm-8.32 19.98c1.36-1.53 2.04-3.75 2.04-6.69 0-2.93-.88-5.01-2.65-6.25-1.77-1.24-4.52-1.85-8.25-1.85h-6.47v17.08h7.63c3.78 0 6.35-.76 7.7-2.29zM279.88 160.71l-4.72-10.97h-21.29l-4.72 10.97h-12.06l21.94-50.79H270l21.94 50.79h-12.06zm-15.33-35.68l-6.39 14.75h12.72l-6.33-14.75zM312.51 160.71h-11.33v-20.05l-17.58-30.74h12.28l10.97 18.89 10.97-18.89h12.28l-17.58 30.74v20.05zM377.4 128.74l-13.73 27.76h-6.76l-13.66-27.76v31.97h-11.33v-50.79h15.33l13.08 27.9 13.15-27.9h15.26v50.79H377.4v-31.97zM434.22 109.92v10.1h-25.29v10.46h22.74v9.66h-22.74v10.54h26.08v10.03H397.6v-50.79h36.62zM477.02 109.92h11.34v50.79h-11.34l-24.2-31.83v31.83h-11.33v-50.79h10.61l24.92 32.7v-32.7zM518.73 119.73v40.98H507.4v-40.98H493v-9.81h40.11v9.81h-14.38z" class="st0"/></svg>