<?xml version="1.0" encoding="UTF-8"?><!DOCTYPE svg PUBLIC "-//W3C//DTD SVG 1.1//EN" "http://www.w3.org/Graphics/SVG/1.1/DTD/svg11.dtd"><svg xmlns="http://www.w3.org/2000/svg" xmlns:xlink="http://www.w3.org/1999/xlink" version="1.1" id="Layer_1" x="0px" y="0px" width="512px" height="512px" viewBox="0 0 512 512" xml:space="preserve"><path fill="#FFF" d="M7.9 255.9c0-137 111.1-248 248.1-248s248.1 111 248.1 247.9S393 503.7 256 503.7C119 503.8 7.9 392.8 7.9 255.9z"/><path fill="#0095C3" d="M503.9 256.5v-.5c0-31.5-22.9-57.6-55.1-57.6s-54.7 25.7-54.7 57.2v.5c0 31.5 22.9 57.6 55.1 57.6s54.7-25.7 54.7-57.2m-143.6-62l-20.1 19.6c-11.6-9.5-24.2-15.7-40.3-15.7-31 0-53.5 25.5-53.5 57.2v.5c0 31.7 22.5 57.6 53.5 57.6 16.7 0 28.3-5.7 39.9-15.2l19 18.6c-15.4 14.1-33 22.8-59.8 22.8-47.3 0-82.5-36.8-82.5-83.3v-.5c0-46.1 34.5-83.8 83.6-83.8 27.8 0 45.4 9 60.2 22.2M199.5 337.1H82.3v-22.4l55.8-47.5c22.2-18.7 30.4-29.2 30.4-43.8 0-16-11.4-25.2-26.2-25.2-14.8 0-25 8.1-37.5 24.3l-20.2-15.7c15.5-21.8 30.8-34 59.8-34 31.7 0 53.5 19.4 53.5 48.4v.5c0 25.5-13.4 39.4-42.1 62.7l-33.4 27.8h77.1v24.9zm294-153.1C462.5 82.7 368.2 9 256.6 9 119.8 8.9 8.9 119.8 8.9 256.5s110.9 247.6 247.7 247.6c112.1 0 206.7-74.4 237.3-176.5-12.8 7.7-28.1 12.3-45.2 12.3-49.8 0-84.5-37.7-84.5-83.3v-.5c0-45.6 35.2-83.8 85-83.8 16.8 0 31.7 4.3 44.3 11.7"/><metadata><rdf:RDF xmlns:rdf="http://www.w3.org/1999/02/22-rdf-syntax-ns#" xmlns:rdfs="http://www.w3.org/2000/01/rdf-schema#" xmlns:dc="http://purl.org/dc/elements/1.1/"><rdf:Description about="https://iconscout.com/legal#licenses" dc:title="co" dc:description="co" dc:publisher="Iconscout" dc:date="2018-03-26" dc:format="image/svg+xml" dc:language="en"><dc:creator><rdf:Bag><rdf:li>Roundicons.com</rdf:li></rdf:Bag></dc:creator></rdf:Description></rdf:RDF></metadata></svg>