<?xml version="1.0" encoding="utf-8"?>
<!-- Generator: Adobe Illustrator 17.0.0, SVG Export Plug-In . SVG Version: 6.00 Build 0)  -->
<!DOCTYPE svg PUBLIC "-//W3C//DTD SVG 1.1//EN" "http://www.w3.org/Graphics/SVG/1.1/DTD/svg11.dtd">
<svg version="1.1" id="Layer_1" xmlns="http://www.w3.org/2000/svg" xmlns:xlink="http://www.w3.org/1999/xlink" x="0px" y="0px"
	 width="129.326px" height="139.276px" viewBox="0 0 129.326 139.276" enable-background="new 0 0 129.326 139.276"
	 xml:space="preserve">
<rect x="-201.836" y="59.755" fill="none" width="339.205" height="371.245"/>
<path fill="#D1D2D1" d="M107.019,78.536c-5.026-12.254-7.536-25.166-7.536-38.744c0-8.547-2.487-15.333-7.462-20.359
	c-4.975-5.031-11.812-8.058-20.518-9.097c0.41-0.931,0.619-1.891,0.619-2.874c0-2.072-0.726-3.838-2.175-5.287
	C68.498,0.727,66.734,0,64.661,0c-2.069,0-3.834,0.727-5.282,2.175c-1.454,1.454-2.175,3.215-2.175,5.287
	c0,0.983,0.205,1.942,0.619,2.874c-8.706,1.039-15.543,4.066-20.518,9.097c-4.975,5.026-7.462,11.812-7.462,20.359
	c0,13.578-2.51,26.49-7.536,38.744C17.28,90.792,9.847,101.091,0,109.433c0,2.691,0.983,5.025,2.954,6.991
	c1.97,1.97,4.299,2.952,6.996,2.952h34.817c0,5.497,1.942,10.187,5.827,14.072c3.888,3.885,8.579,5.827,14.071,5.827
	c5.492,0,10.183-1.942,14.067-5.827c3.885-3.885,5.827-8.575,5.827-14.072h34.817c2.697,0,5.031-0.983,6.996-2.952
	c1.971-1.966,2.954-4.3,2.954-6.991C119.484,101.091,112.045,90.792,107.019,78.536L107.019,78.536z"/>
<path fill="#EAEAEA" d="M76.525,16.868c4.814,0,8.923,1.696,12.322,5.093c3.397,3.399,5.093,7.508,5.093,12.323
	c0,1.055-0.527,1.582-1.583,1.582c-1.055,0-1.583-0.527-1.583-1.582c0-3.897-1.4-7.241-4.203-10.046
	c-2.805-2.804-6.149-4.203-10.045-4.203c-1.056,0-1.583-0.528-1.583-1.583C74.941,17.396,75.468,16.868,76.525,16.868L76.525,16.868
	z"/>
<path fill="#C6C5C5" d="M64.665,133.057"/>
<g>
	<path fill="#B7B7B7" d="M50.947,84.909h27.752C78.699,84.909,66.805,112.22,50.947,84.909z"/>
	<circle fill="#B7B7B7" cx="45.954" cy="68.757" r="4.992"/>
	<circle fill="#B7B7B7" cx="85.306" cy="68.757" r="4.992"/>
</g>
<path fill="#C6C5C5" d="M60.044,492.667c0,0,9.083,4.583,10.083,9.833c2.083,1.5,1.5,0,1.5,0"/>
<path fill="#B7B7B7" d="M44.767,119.376h20.056l-0.158,19.899C64.665,139.275,46.364,139.577,44.767,119.376z"/>
</svg>
