<?xml version="1.0" encoding="utf-8"?>
<!-- Generator: Adobe Illustrator 17.0.0, SVG Export Plug-In . SVG Version: 6.00 Build 0)  -->
<!DOCTYPE svg PUBLIC "-//W3C//DTD SVG 1.1//EN" "http://www.w3.org/Graphics/SVG/1.1/DTD/svg11.dtd">
<svg version="1.1" id="Layer_1" xmlns="http://www.w3.org/2000/svg" xmlns:xlink="http://www.w3.org/1999/xlink" x="0px" y="0px"
	 width="78px" height="55px" viewBox="0 0 78 55" enable-background="new 0 0 78 55" xml:space="preserve">
<path fill="#009BC9" d="M78,50c0,2.761-2.239,5-5,5H5c-2.761,0-5-2.239-5-5V5c0-2.761,2.239-5,5-5h68c2.761,0,5,2.239,5,5V50z"/>
<g>
	<path fill="#FFFFFF" d="M37.895,39.638c4.526,0,7.122-1.958,9.05-4.618l-4.263-3.033c-1.224,1.488-2.479,2.482-4.612,2.482
		c-2.861,0-4.878-2.396-4.878-5.46v-0.057c0-2.981,2.017-5.406,4.878-5.406c1.956,0,3.299,0.934,4.468,2.395l4.263-3.299
		c-1.812-2.512-4.498-4.263-8.673-4.263c-6.191,0-10.776,4.672-10.776,10.63v0.058C27.352,35.167,32.053,39.638,37.895,39.638"/>
	<path fill="#FFFFFF" d="M7.417,39.403h16.177v-4.612h-8.44l3.504-2.451c3.039-2.19,4.734-3.885,4.734-7.154v-0.059
		c0-3.855-3.068-6.511-7.537-6.511c-3.971,0-6.13,1.547-8.321,4.381l3.825,3.181c1.605-1.837,2.688-2.627,4.059-2.627
		s2.278,0.791,2.278,2.073c0,1.227-0.731,2.188-2.629,3.68L7.417,35.14V39.403z"/>
	<g>
		<path fill="#FFFFFF" d="M60.236,39.422c6.307,0,11.036-4.762,11.036-10.629v-0.057c0-5.87-4.67-10.573-10.978-10.573
			c-6.31,0-11.039,4.762-11.039,10.63v0.058C49.255,34.721,53.928,39.422,60.236,39.422"/>
		<path fill="#008FBE" d="M60.281,34.312c-3.094,0-5.23-2.571-5.23-5.518v-0.057c0-2.953,2.075-5.464,5.172-5.464
			c3.122,0,5.252,2.569,5.252,5.521v0.058C65.475,31.796,63.4,34.312,60.281,34.312"/>
	</g>
</g>
</svg>
