<?xml version="1.0" encoding="utf-8"?>
<!-- Generator: Adobe Illustrator 17.0.0, SVG Export Plug-In . SVG Version: 6.00 Build 0)  -->
<!DOCTYPE svg PUBLIC "-//W3C//DTD SVG 1.1//EN" "http://www.w3.org/Graphics/SVG/1.1/DTD/svg11.dtd">
<svg version="1.1" id="Layer_1" xmlns="http://www.w3.org/2000/svg" xmlns:xlink="http://www.w3.org/1999/xlink" x="0px" y="0px"
	 width="78px" height="55px" viewBox="0 0 78 55" enable-background="new 0 0 78 55" xml:space="preserve">
<path fill="#561F91" d="M78.25,50.25c0,2.761-2.239,5-5,5h-68c-2.761,0-5-2.239-5-5v-45c0-2.761,2.239-5,5-5h68c2.761,0,5,2.239,5,5
	V50.25z"/>
<path fill="#FFFFFF" d="M56.71,39.81"/>
<path fill="none" d="M44.457,10.601"/>
<path fill="#FFFFFF" d="M36,24.29"/>
<g>
	<g id="Layer_1_78_">
		<g>
			<path fill="#FFFFFF" d="M55.082,41.619H25.718c-0.811,0-1.469,0.657-1.469,1.469c0,0.811,0.657,1.468,1.469,1.468h29.363
				c0.811,0,1.469-0.657,1.469-1.468C56.55,42.277,55.892,41.619,55.082,41.619z"/>
			<path fill="#FFFFFF" d="M27.553,37.801c-0.811,0-1.469,0.657-1.469,1.469s0.657,1.469,1.469,1.469h25.693
				c0.811,0,1.469-0.658,1.469-1.469s-0.657-1.469-1.469-1.469H52.88V24.587h0.366c0.406,0,0.734-0.329,0.734-0.734
				c0-0.405-0.329-0.734-0.734-0.734H27.553c-0.406,0-0.734,0.329-0.734,0.734c0,0.405,0.329,0.734,0.734,0.734h0.367v13.214
				L27.553,37.801L27.553,37.801z M49.943,24.587v13.214h-4.404V24.587H49.943z M42.602,24.587v13.214h-4.404V24.587H42.602z
				 M30.856,24.587h4.404v13.214h-4.404V24.587z"/>
			<path fill="#FFFFFF" d="M25.718,21.8h29.363c0.005,0,0.01,0,0.014,0c0.812,0,1.469-0.657,1.469-1.469
				c0-0.645-0.415-1.192-0.992-1.39l-14.569-6.556c-0.383-0.172-0.821-0.172-1.205,0l-14.683,6.607
				c-0.632,0.285-0.979,0.971-0.833,1.647C24.428,21.316,25.026,21.8,25.718,21.8z"/>
		</g>
	</g>
</g>
</svg>
