<?xml version="1.0" encoding="utf-8"?>
<!-- Generator: Adobe Illustrator 17.0.0, SVG Export Plug-In . SVG Version: 6.00 Build 0)  -->
<!DOCTYPE svg PUBLIC "-//W3C//DTD SVG 1.1//EN" "http://www.w3.org/Graphics/SVG/1.1/DTD/svg11.dtd">
<svg version="1.1" id="Layer_1" xmlns="http://www.w3.org/2000/svg" xmlns:xlink="http://www.w3.org/1999/xlink" x="0px" y="0px"
	 width="78px" height="55px" viewBox="0 0 78 55" enable-background="new 0 0 78 55" xml:space="preserve">
<path fill="#009BE1" d="M78,50c0,2.761-2.239,5-5,5H5c-2.761,0-5-2.239-5-5V5c0-2.761,2.239-5,5-5h68c2.761,0,5,2.239,5,5V50z"/>
<path fill="#FFFFFF" d="M56.71,39.81"/>
<path fill="none" d="M44.457,10.601"/>
<path fill="#FFFFFF" d="M36,24.29"/>
<path fill="#FFFFFF" d="M15.753,46.779h47.653c2.416,0,4.361-1.955,4.361-4.358v-2.679H64.05V12.028
	c0-2.185-1.772-3.956-3.958-3.956H19.056c-2.187,0-3.958,1.771-3.958,3.956v27.713h-3.706v2.679
	C11.392,44.824,13.348,46.779,15.753,46.779L15.753,46.779z"/>
<path fill="#009BE1" d="M17.057,11.605h44.71v30.791h-16.17v0.31c0,0.971-0.782,1.752-1.752,1.752h-8.88
	c-0.971,0-1.752-0.781-1.752-1.752v-0.31H17.057V11.605z"/>
<g>
	<path fill="#FFFFFF" d="M31.673,27.609c0-5.134,3.842-8.601,8.975-8.601c3.536,0,5.746,1.563,6.731,3.025l-3.4,3.162
		c-0.646-0.952-1.7-1.563-3.094-1.563c-2.176,0-3.841,1.496-3.841,3.978c0,2.481,1.666,4.012,3.841,4.012
		c1.394,0,2.448-0.68,3.094-1.598l3.4,3.196c-0.986,1.428-3.196,3.025-6.731,3.025C35.515,36.244,31.673,32.777,31.673,27.609z"/>
</g>
<rect x="41.1" y="15.309" fill="#FFFFFF" width="2.883" height="7.801"/>
<rect x="35.737" y="15.309" fill="#FFFFFF" width="2.883" height="7.801"/>
<rect x="41.1" y="31.813" fill="#FFFFFF" width="2.883" height="7.801"/>
<rect x="35.737" y="31.813" fill="#FFFFFF" width="2.883" height="7.801"/>
</svg>
