<?xml version="1.0" encoding="utf-8"?>
<!-- Generator: Adobe Illustrator 17.0.0, SVG Export Plug-In . SVG Version: 6.00 Build 0)  -->
<!DOCTYPE svg PUBLIC "-//W3C//DTD SVG 1.1//EN" "http://www.w3.org/Graphics/SVG/1.1/DTD/svg11.dtd">
<svg version="1.1" id="Layer_1" xmlns="http://www.w3.org/2000/svg" xmlns:xlink="http://www.w3.org/1999/xlink" x="0px" y="0px"
	 width="77.082px" height="55px" viewBox="0 0 77.082 55" enable-background="new 0 0 77.082 55" xml:space="preserve">
<path fill="#429565" d="M76.295,2.551c-0.51-0.508-1.111-0.763-1.807-0.763H2.546c-0.695,0-1.3,0.255-1.807,0.763
	C0.231,3.059-0.024,3.663-0.024,4.358v46.249c0,0.695,0.255,1.297,0.763,1.804c0.508,0.511,1.112,0.766,1.807,0.766h71.943
	c0.695,0,1.297-0.255,1.807-0.766c0.508-0.508,0.763-1.109,0.763-1.804V4.358C77.059,3.663,76.803,3.061,76.295,2.551L76.295,2.551z
	 M71.919,37.759c-2.837,0-5.26,1.006-7.266,3.013c-2.009,2.007-3.013,4.427-3.013,7.266H15.391c0-2.839-1.003-5.26-3.01-7.266
	c-2.007-2.009-4.43-3.013-7.266-3.013V17.204c2.836,0,5.26-1.003,7.266-3.01s3.01-4.43,3.01-7.266h46.251
	c0,2.836,1.001,5.26,3.01,7.266c2.007,2.006,4.429,3.01,7.266,3.01L71.919,37.759L71.919,37.759z"/>
<path fill="#429565" d="M50.215,15.857c-1.116-1.799-2.586-3.264-4.414-4.395c-1.827-1.129-3.827-1.694-6.004-1.694
	c-2.174,0-4.176,0.565-6.001,1.694c-1.827,1.131-3.3,2.596-4.416,4.395c-1.116,1.796-1.979,3.741-2.589,5.829
	s-0.912,4.145-0.912,6.176c0,2.028,0.302,4.088,0.912,6.176s1.473,4.03,2.589,5.829c1.116,1.799,2.589,3.261,4.416,4.393
	c1.825,1.131,3.827,1.697,6.001,1.697c2.177,0,4.176-0.566,6.004-1.697c1.828-1.131,3.298-2.594,4.414-4.393
	c1.118-1.799,1.981-3.741,2.589-5.829c0.61-2.088,0.915-4.148,0.915-6.176c0-2.031-0.305-4.088-0.915-6.176
	C52.196,19.598,51.333,17.653,50.215,15.857L50.215,15.857z"/>
<g>
	<path fill="#FFFFFF" d="M38.478,35.5V24.625h-2.562v-3.842h7.433V35.5H38.478z"/>
</g>
</svg>
