<?xml version="1.0" encoding="utf-8"?>
<!-- Generator: Adobe Illustrator 17.0.0, SVG Export Plug-In . SVG Version: 6.00 Build 0)  -->
<!DOCTYPE svg PUBLIC "-//W3C//DTD SVG 1.1//EN" "http://www.w3.org/Graphics/SVG/1.1/DTD/svg11.dtd">
<svg version="1.1" id="Layer_1" xmlns="http://www.w3.org/2000/svg" xmlns:xlink="http://www.w3.org/1999/xlink" x="0px" y="0px"
	 width="78px" height="55px" viewBox="0 0 78 55" enable-background="new 0 0 78 55" xml:space="preserve">
<path fill="#253B80" d="M78,50c0,2.761-2.239,5-5,5H5c-2.761,0-5-2.239-5-5V5c0-2.761,2.239-5,5-5h68c2.761,0,5,2.239,5,5V50z"/>
<rect x="7.989" y="39.519" fill="none" width="42.49" height="10.893"/>
<g id="XMLID_83_">
	<g>
		<defs>
			<rect id="SVGID_1_" x="-25.95" y="11.797" width="118.012" height="31.406"/>
		</defs>
		<clipPath id="SVGID_2_">
			<use xlink:href="#SVGID_1_"  overflow="visible"/>
		</clipPath>
	</g>
</g>
<rect x="-25.95" y="11.797" fill="none" width="118.012" height="31.406"/>
<g id="XMLID_76_">
	<g id="XMLID_78_">
		<defs>
			<rect id="SVGID_3_" x="-25.95" y="11.797" width="118.012" height="31.406"/>
		</defs>
		<clipPath id="SVGID_4_">
			<use xlink:href="#SVGID_3_"  overflow="visible"/>
		</clipPath>
	</g>
</g>
<g>
	<path id="XMLID_57_" fill="#FFFFFF" d="M15.066,25.565c-0.283,1.856-1.701,1.856-3.073,1.856h-0.781l0.548-3.467
		c0.033-0.21,0.214-0.364,0.426-0.364h0.358c0.934,0,1.815,0,2.271,0.532C15.086,24.44,15.169,24.912,15.066,25.565z M14.469,20.72
		H9.296c-0.354,0-0.655,0.257-0.71,0.607L6.493,34.592C6.451,34.854,6.654,35.09,6.92,35.09h2.47c0.354,0,0.655-0.257,0.71-0.607
		l0.564-3.578c0.054-0.35,0.356-0.607,0.71-0.607h1.638c3.408,0,5.374-1.649,5.888-4.917c0.231-1.43,0.01-2.553-0.66-3.34
		C17.504,21.176,16.2,20.72,14.469,20.72z"/>
	<path id="XMLID_54_" fill="#FFFFFF" d="M26.479,30.326c-0.239,1.415-1.362,2.365-2.795,2.365c-0.719,0-1.294-0.231-1.663-0.668
		c-0.366-0.434-0.505-1.052-0.389-1.741c0.223-1.403,1.365-2.384,2.776-2.384c0.703,0,1.275,0.234,1.652,0.675
		C26.438,29.019,26.588,29.641,26.479,30.326z M29.932,25.505h-2.477c-0.211,0-0.393,0.154-0.426,0.364l-0.11,0.693l-0.173-0.251
		c-0.536-0.778-1.732-1.039-2.926-1.039c-2.738,0-5.076,2.073-5.531,4.982c-0.237,1.451,0.1,2.838,0.923,3.806
		c0.755,0.89,1.835,1.26,3.12,1.26c2.206,0,3.429-1.418,3.429-1.418l-0.11,0.688c-0.042,0.263,0.161,0.499,0.425,0.499h2.231
		c0.355,0,0.654-0.257,0.71-0.607l1.339-8.479C30.399,25.742,30.197,25.505,29.932,25.505z"/>
	<path id="XMLID_33_" fill="#FFFFFF" d="M43.126,25.505h-2.489c-0.238,0-0.461,0.118-0.595,0.315l-3.433,5.057l-1.455-4.86
		c-0.092-0.304-0.372-0.513-0.69-0.513h-2.446c-0.297,0-0.504,0.29-0.409,0.57l2.742,8.047l-2.578,3.639
		c-0.203,0.287,0.002,0.681,0.352,0.681h2.486c0.236,0,0.457-0.115,0.591-0.309l8.28-11.952
		C43.678,25.896,43.475,25.505,43.126,25.505z"/>
	<path id="XMLID_38_" fill="#FFFFFF" d="M51.965,25.565c-0.282,1.856-1.7,1.856-3.073,1.856h-0.78l0.548-3.467
		c0.033-0.21,0.213-0.364,0.425-0.364h0.358c0.933,0,1.815,0,2.271,0.532C51.986,24.44,52.069,24.912,51.965,25.565z M51.368,20.72
		h-5.174c-0.353,0-0.654,0.257-0.71,0.607l-2.092,13.266c-0.042,0.262,0.161,0.498,0.425,0.498h2.655
		c0.247,0,0.458-0.18,0.496-0.425l0.594-3.76c0.054-0.35,0.356-0.607,0.71-0.607h1.637c3.408,0,5.374-1.649,5.889-4.917
		c0.232-1.43,0.009-2.553-0.66-3.34C54.403,21.176,53.1,20.72,51.368,20.72z"/>
	<path id="XMLID_21_" fill="#FFFFFF" d="M63.378,30.326c-0.238,1.415-1.362,2.365-2.795,2.365c-0.718,0-1.294-0.231-1.663-0.668
		c-0.366-0.434-0.504-1.052-0.389-1.741c0.225-1.403,1.365-2.384,2.776-2.384c0.703,0,1.275,0.234,1.652,0.675
		C63.338,29.019,63.488,29.641,63.378,30.326z M66.831,25.505h-2.476c-0.213,0-0.393,0.154-0.425,0.364l-0.11,0.693l-0.174-0.251
		c-0.536-0.778-1.731-1.039-2.925-1.039c-2.738,0-5.075,2.073-5.53,4.982c-0.236,1.451,0.099,2.838,0.922,3.806
		c0.756,0.89,1.835,1.26,3.12,1.26c2.206,0,3.429-1.418,3.429-1.418l-0.11,0.688c-0.042,0.263,0.161,0.499,0.427,0.499h2.231
		c0.353,0,0.654-0.257,0.71-0.607l1.34-8.479C67.299,25.742,67.097,25.505,66.831,25.505z"/>
	<path id="XMLID_28_" fill="#FFFFFF" d="M69.752,21.083l-2.123,13.508c-0.042,0.262,0.161,0.498,0.425,0.498h2.135
		c0.355,0,0.656-0.257,0.71-0.607l2.094-13.265c0.042-0.262-0.161-0.498-0.425-0.498h-2.39
		C69.966,20.72,69.784,20.874,69.752,21.083z"/>
</g>
<g>
	<g>
		<defs>
			<polyline id="SVGID_5_" points="92.062,11.797 92.062,43.203 -25.95,43.203 -25.95,11.797 			"/>
		</defs>
		<clipPath id="SVGID_6_">
			<use xlink:href="#SVGID_5_"  overflow="visible"/>
		</clipPath>
		<g id="XMLID_6_" clip-path="url(#SVGID_6_)">
			<g id="XMLID_8_">
				<defs>
					<polyline id="SVGID_7_" points="92.062,11.797 92.062,43.203 -25.95,43.203 -25.95,11.797 					"/>
				</defs>
				<clipPath id="SVGID_8_">
					<use xlink:href="#SVGID_7_"  overflow="visible"/>
				</clipPath>
			</g>
		</g>
	</g>
</g>
</svg>
