<?xml version="1.0" encoding="utf-8"?>
<!-- Generator: Adobe Illustrator 17.0.0, SVG Export Plug-In . SVG Version: 6.00 Build 0)  -->
<!DOCTYPE svg PUBLIC "-//W3C//DTD SVG 1.1//EN" "http://www.w3.org/Graphics/SVG/1.1/DTD/svg11.dtd">
<svg version="1.1" id="Layer_1" xmlns="http://www.w3.org/2000/svg" xmlns:xlink="http://www.w3.org/1999/xlink" x="0px" y="0px"
	 width="12.1px" height="12.016px" viewBox="8.955 34.501 12.1 12.016" enable-background="new 8.955 34.501 12.1 12.016"
	 xml:space="preserve">
<g>
	<path fill="#9C9DA1" d="M14.427,40.511l-5.356,5.356c-0.149,0.149-0.149,0.39,0,0.539c0.074,0.074,0.172,0.112,0.269,0.112
		c0.098,0,0.195-0.037,0.269-0.112l5.396-5.396l5.396,5.396c0.074,0.074,0.172,0.112,0.269,0.112s0.195-0.037,0.269-0.112
		c0.149-0.149,0.149-0.39,0-0.539l-5.356-5.356l5.359-5.36c0.149-0.149,0.149-0.39,0-0.539c-0.149-0.149-0.39-0.149-0.538,0
		l-5.4,5.4l-5.4-5.4c-0.149-0.149-0.39-0.149-0.538,0c-0.149,0.149-0.149,0.39,0,0.539L14.427,40.511z"/>
</g>
</svg>
